<svg id="SvgjsSvg1006" width="5000px" height="3654.7761426862876px" xmlns="http://www.w3.org/2000/svg" version="1.1" xmlns:xlink="http://www.w3.org/1999/xlink" xmlns:svgjs="http://svgjs.com/svgjs" viewBox="0 0 600.96875 439.28125"><defs id="SvgjsDefs1007"></defs><g id="SvgjsG1009" transform="rotate(0 303.4765625 151)"><svg height="302" viewBox="0 0 99.05599975585938 99.05699920654297" xmlns="http://www.w3.org/2000/svg" version="1.1" xmlns:xlink="http://www.w3.org/1999/xlink" xmlns:svgjs="http://svgjs.com/svgjs" preserveAspectRatio="none" width="301.984375" x="152.484375" y="0"><g><svg data-color="1" xmlns="http://www.w3.org/2000/svg" xmlns:xlink="http://www.w3.org/1999/xlink" version="1.1" x="0px" y="0px" viewBox="0.4720001220703125 0.37299999594688416 99.05599975585938 99.05699920654297" enable-background="new 0 0 100 100" xml:space="preserve" width="99.05599975585938" height="99.05699920654297" fill="#1e1e1e"><g><path d="M50,0.373c-27.354,0-49.528,22.175-49.528,49.528S22.646,99.43,50,99.43s49.528-22.175,49.528-49.528   S77.354,0.373,50,0.373z M50,70.127c-11.171,0-20.226-9.055-20.226-20.226S38.829,29.677,50,29.677s20.226,9.054,20.226,20.225   S61.171,70.127,50,70.127z"></path><path d="M54,48.947v-0.137c4-1.728,4.879-4.41,4.879-6.911c0-3.683-2.861-7.275-8.589-7.275c-5.185,0-9.137,3.183-9.137,7.867   c0,2.545,1.411,5.092,4.686,6.638l0.046,0.136c-3.638,1.546-5.865,4.184-5.865,7.91c0,4.32,3.729,8.003,9.911,8.003   c5.639,0,10.037-3.455,10.037-8.593C59.968,52.992,58,50.4,54,48.947z M44.93,42.217c0-2.546,1.819-4.728,5.138-4.728   c3.593,0,5.002,2.455,5.002,4.819c0,2.683-1.956,4.502-4.501,5.365C47.158,46.764,44.93,45.174,44.93,42.217z M50.021,62.269   c-3.772,0-6.045-2.639-5.91-5.639c0-2.818,1.865-5.092,5.32-6.093c4.001,1.138,6.501,2.865,6.501,6.456   C55.933,60.041,53.614,62.269,50.021,62.269z"></path></g></svg></g><defs id="SvgjsDefs1008"></defs></svg></g><g id="SvgjsG1011" transform="rotate(0 300.484375 367.6640625)"><svg xmlns="http://www.w3.org/2000/svg" xmlns:xlink="http://www.w3.org/1999/xlink" width="600.96875" viewBox="4.980000019073486 11.770000457763672 600.9700317382812 53.32999801635742" overflow="visible" style="overflow: visible;" transform="" version="1.1" xmlns:svgjs="http://svgjs.com/svgjs" preserveAspectRatio="none" height="53.328125" x="0" y="341" fill="#000000" stroke="none"><path stroke="none" fill="#2f56b9" d="M4.98 49.32L4.98 49.32L4.98 49.32Q4.98 47.10 5.59 45.20L5.59 45.20L5.59 45.20Q6.19 43.29 7.24 41.72L7.24 41.72L7.24 41.72Q8.28 40.15 9.66 38.93L9.66 38.93L9.66 38.93Q11.04 37.71 12.63 36.78L12.63 36.78L12.63 36.78Q10.44 34.63 9.46 32.48L9.46 32.48L9.46 32.48Q8.47 30.34 8.47 28.37L8.47 28.37L8.47 28.37Q8.47 25.23 9.95 22.63L9.95 22.63L9.95 22.63Q11.43 20.03 14.19 18.14L14.19 18.14L14.19 18.14Q16.95 16.25 20.88 15.22L20.88 15.22L20.88 15.22Q24.82 14.19 29.74 14.19L29.74 14.19L29.74 14.19Q34.66 14.19 38.59 15.22L38.59 15.22L38.59 15.22Q42.53 16.25 45.29 18.14L45.29 18.14L45.29 18.14Q48.05 20.03 49.53 22.63L49.53 22.63L49.53 22.63Q51.00 25.23 51.00 28.37L51.00 28.37L51.00 28.37Q51.00 30.34 50.02 32.48L50.02 32.48L50.02 32.48Q49.04 34.63 46.85 36.78L46.85 36.78L46.85 36.78Q48.40 37.71 49.80 38.93L49.80 38.93L49.80 38.93Q51.19 40.15 52.24 41.72L52.24 41.72L52.24 41.72Q53.29 43.29 53.89 45.20L53.89 45.20L53.89 45.20Q54.49 47.10 54.49 49.32L54.49 49.32L54.49 49.32Q54.49 53.03 52.76 55.97L52.76 55.97L52.76 55.97Q51.04 58.91 47.81 60.92L47.81 60.92L47.81 60.92Q44.59 62.94 40.01 64.02L40.01 64.02L40.01 64.02Q35.42 65.10 29.74 65.10L29.74 65.10L29.74 65.10Q24.06 65.10 19.47 64.02L19.47 64.02L19.47 64.02Q14.89 62.94 11.66 60.92L11.66 60.92L11.66 60.92Q8.44 58.91 6.71 55.97L6.71 55.97L6.71 55.97Q4.98 53.03 4.98 49.32ZM18.54 28.82L18.54 28.82L18.54 28.82Q18.54 29.99 19.12 31.02L19.12 31.02L19.12 31.02Q19.71 32.06 21.03 32.83L21.03 32.83L21.03 32.83Q22.34 33.61 24.49 34.06L24.49 34.06L24.49 34.06Q26.63 34.50 29.74 34.50L29.74 34.50L29.74 34.50Q32.85 34.50 34.99 34.06L34.99 34.06L34.99 34.06Q37.13 33.61 38.45 32.83L38.45 32.83L38.45 32.83Q39.77 32.06 40.36 31.02L40.36 31.02L40.36 31.02Q40.94 29.99 40.94 28.82L40.94 28.82L40.94 28.82Q40.94 27.64 40.36 26.61L40.36 26.61L40.36 26.61Q39.77 25.58 38.45 24.80L38.45 24.80L38.45 24.80Q37.13 24.03 34.99 23.58L34.99 23.58L34.99 23.58Q32.85 23.14 29.74 23.14L29.74 23.14L29.74 23.14Q26.63 23.14 24.49 23.58L24.49 23.58L24.49 23.58Q22.34 24.03 21.03 24.80L21.03 24.80L21.03 24.80Q19.71 25.58 19.12 26.61L19.12 26.61L19.12 26.61Q18.54 27.64 18.54 28.82ZM15.04 48.85L15.04 48.85L15.04 48.85Q15.04 50.46 15.98 51.81L15.98 51.81L15.98 51.81Q16.92 53.16 18.76 54.11L18.76 54.11L18.76 54.11Q20.60 55.07 23.36 55.61L23.36 55.61L23.36 55.61Q26.12 56.15 29.74 56.15L29.74 56.15L29.74 56.15Q33.36 56.15 36.12 55.61L36.12 55.61L36.12 55.61Q38.88 55.07 40.72 54.11L40.72 54.11L40.72 54.11Q42.56 53.16 43.50 51.81L43.50 51.81L43.50 51.81Q44.43 50.46 44.43 48.85L44.43 48.85L44.43 48.85Q44.43 47.23 43.53 45.88L43.53 45.88L43.53 45.88Q42.62 44.53 40.80 43.58L40.80 43.58L40.80 43.58Q38.97 42.62 36.21 42.08L36.21 42.08L36.21 42.08Q33.45 41.55 29.74 41.55L29.74 41.55L29.74 41.55Q26.03 41.55 23.26 42.08L23.26 42.08L23.26 42.08Q20.50 42.62 18.68 43.58L18.68 43.58L18.68 43.58Q16.85 44.53 15.95 45.88L15.95 45.88L15.95 45.88Q15.04 47.23 15.04 48.85ZM63.51 39.32L63.51 39.32L63.51 39.32Q63.51 34.02 65.51 29.44L65.51 29.44L65.51 29.44Q67.51 24.85 71.30 21.47L71.30 21.47L71.30 21.47Q75.09 18.09 80.57 16.15L80.57 16.15L80.57 16.15Q86.04 14.22 92.96 14.22L92.96 14.22L92.96 14.22Q99.02 14.22 104.09 15.44L104.09 15.44L104.09 15.44Q109.15 16.66 113.50 19.17L113.50 19.17L108.86 26.79L108.86 26.79Q107.56 25.93 105.86 25.26L105.86 25.26L105.86 25.26Q104.17 24.60 102.24 24.14L102.24 24.14L102.24 24.14Q100.32 23.68 98.28 23.42L98.28 23.42L98.28 23.42Q96.23 23.17 94.23 23.17L94.23 23.17L94.23 23.17Q89.41 23.17 85.63 24.36L85.63 24.36L85.63 24.36Q81.85 25.55 79.27 27.69L79.27 27.69L79.27 27.69Q76.68 29.83 75.33 32.80L75.33 32.80L75.33 32.80Q73.98 35.77 73.98 39.32L73.98 39.32L73.98 39.32Q73.98 43.01 75.38 46.08L75.38 46.08L75.38 46.08Q76.77 49.16 79.43 51.40L79.43 51.40L79.43 51.40Q82.08 53.64 85.90 54.89L85.90 54.89L85.90 54.89Q89.72 56.15 94.55 56.15L94.55 56.15L94.55 56.15Q96.74 56.15 98.90 55.83L98.90 55.83L98.90 55.83Q101.05 55.51 103.07 54.95L103.07 54.95L103.07 54.95Q105.09 54.40 106.96 53.62L106.96 53.62L106.96 53.62Q108.83 52.84 110.45 51.92L110.45 51.92L115.08 59.54L115.08 59.54Q111.02 62.14 105.69 63.62L105.69 63.62L105.69 63.62Q100.36 65.10 94.36 65.10L94.36 65.10L94.36 65.10Q86.71 65.10 80.93 63.11L80.93 63.11L80.93 63.11Q75.16 61.13 71.28 57.65L71.28 57.65L71.28 57.65Q67.41 54.18 65.46 49.46L65.46 49.46L65.46 49.46Q63.51 44.75 63.51 39.32ZM129.94 21.87L129.94 21.87L129.94 21.87Q128.54 21.87 127.41 21.47L127.41 21.47L127.41 21.47Q126.29 21.07 125.49 20.39L125.49 20.39L125.49 20.39Q124.70 19.71 124.27 18.80L124.27 18.80L124.27 18.80Q123.84 17.90 123.84 16.88L123.84 16.88L123.84 16.88Q123.84 15.84 124.27 14.93L124.27 14.93L124.27 14.93Q124.70 14.03 125.49 13.36L125.49 13.36L125.49 13.36Q126.29 12.70 127.41 12.30L127.41 12.30L127.41 12.30Q128.54 11.90 129.94 11.90L129.94 11.90L129.94 11.90Q131.36 11.90 132.49 12.30L132.49 12.30L132.49 12.30Q133.62 12.70 134.41 13.36L134.41 13.36L134.41 13.36Q135.21 14.03 135.63 14.93L135.63 14.93L135.63 14.93Q136.06 15.84 136.06 16.88L136.06 16.88L136.06 16.88Q136.06 17.90 135.63 18.80L135.63 18.80L135.63 18.80Q135.21 19.71 134.41 20.39L134.41 20.39L134.41 20.39Q133.62 21.07 132.49 21.47L132.49 21.47L132.49 21.47Q131.36 21.87 129.94 21.87ZM125.24 64.43L125.24 26.98L134.63 26.98L134.63 64.43L125.24 64.43ZM146.66 64.43L146.66 26.98L156.06 26.98L156.06 32.37L156.06 32.37Q159.17 30.06 162.63 28.37L162.63 28.37L162.63 28.37Q166.09 26.69 169.51 25.80L169.51 25.80L172.28 34.40L172.28 34.40Q166.85 34.94 162.74 36.83L162.74 36.83L162.74 36.83Q158.63 38.72 156.06 42.15L156.06 42.15L156.06 64.43L146.66 64.43ZM177.00 45.80L177.00 45.80L177.00 45.80Q177.00 41.67 178.51 38.10L178.51 38.10L178.51 38.10Q180.02 34.53 182.92 31.91L182.92 31.91L182.92 31.91Q185.83 29.29 190.03 27.80L190.03 27.80L190.03 27.80Q194.24 26.31 199.63 26.31L199.63 26.31L199.63 26.31Q201.98 26.31 204.36 26.60L204.36 26.60L204.36 26.60Q206.74 26.88 208.95 27.41L208.95 27.41L208.95 27.41Q211.15 27.93 213.09 28.64L213.09 28.64L213.09 28.64Q215.03 29.36 216.46 30.21L216.46 30.21L212.11 37.29L212.11 37.29Q209.03 35.86 206.28 35.20L206.28 35.20L206.28 35.20Q203.54 34.53 200.71 34.53L200.71 34.53L200.71 34.53Q197.48 34.53 194.90 35.37L194.90 35.37L194.90 35.37Q192.33 36.21 190.54 37.72L190.54 37.72L190.54 37.72Q188.75 39.23 187.81 41.28L187.81 41.28L187.81 41.28Q186.88 43.32 186.88 45.73L186.88 45.73L186.88 45.73Q186.88 48.15 187.87 50.19L187.87 50.19L187.87 50.19Q188.87 52.24 190.70 53.72L190.70 53.72L190.70 53.72Q192.52 55.19 195.11 56.03L195.11 56.03L195.11 56.03Q197.70 56.88 200.87 56.88L200.87 56.88L200.87 56.88Q204.36 56.88 207.46 55.89L207.46 55.89L207.46 55.89Q210.55 54.91 213.22 53.26L213.22 53.26L217.57 60.33L217.57 60.33Q215.88 61.35 213.92 62.22L213.92 62.22L213.92 62.22Q211.95 63.10 209.71 63.73L209.71 63.73L209.71 63.73Q207.47 64.37 205.01 64.73L205.01 64.73L205.01 64.73Q202.55 65.10 199.92 65.10L199.92 65.10L199.92 65.10Q194.56 65.10 190.30 63.64L190.30 63.64L190.30 63.64Q186.05 62.18 183.10 59.59L183.10 59.59L183.10 59.59Q180.15 57.00 178.58 53.48L178.58 53.48L178.58 53.48Q177.00 49.96 177.00 45.80ZM227.94 64.43L227.94 11.77L237.34 11.77L237.34 64.43L227.94 64.43ZM247.59 45.58L247.59 45.58L247.59 45.58Q247.59 41.77 249.15 38.29L249.15 38.29L249.15 38.29Q250.70 34.82 253.62 32.15L253.62 32.15L253.62 32.15Q256.54 29.48 260.78 27.90L260.78 27.90L260.78 27.90Q265.01 26.31 270.41 26.31L270.41 26.31L270.41 26.31Q275.77 26.31 280.07 27.91L280.07 27.91L280.07 27.91Q284.38 29.52 287.37 32.31L287.37 32.31L287.37 32.31Q290.37 35.10 291.98 38.88L291.98 38.88L291.98 38.88Q293.58 42.66 293.58 46.97L293.58 46.97L293.58 46.97Q293.58 47.51 293.56 48.13L293.56 48.13L293.56 48.13Q293.55 48.75 293.48 49.26L293.48 49.26L258.06 49.26L258.06 49.26Q258.67 50.94 260.02 52.34L260.02 52.34L260.02 52.34Q261.36 53.73 263.40 54.75L263.40 54.75L263.40 54.75Q265.43 55.76 268.09 56.32L268.09 56.32L268.09 56.32Q270.76 56.88 274.00 56.88L274.00 56.88L274.00 56.88Q277.23 56.88 280.44 56.19L280.44 56.19L280.44 56.19Q283.65 55.51 286.56 54.46L286.56 54.46L289.74 61.64L289.74 61.64Q287.90 62.49 286.01 63.14L286.01 63.14L286.01 63.14Q284.12 63.79 282.07 64.22L282.07 64.22L282.07 64.22Q280.03 64.65 277.79 64.87L277.79 64.87L277.79 64.87Q275.55 65.10 273.08 65.10L273.08 65.10L273.08 65.10Q266.76 65.10 262.00 63.57L262.00 63.57L262.00 63.57Q257.24 62.05 254.03 59.41L254.03 59.41L254.03 59.41Q250.83 56.78 249.21 53.23L249.21 53.23L249.21 53.23Q247.59 49.67 247.59 45.58ZM258.06 41.93L283.61 41.93L283.61 41.93Q283.11 40.37 282.04 39.02L282.04 39.02L282.04 39.02Q280.98 37.67 279.39 36.67L279.39 36.67L279.39 36.67Q277.81 35.67 275.71 35.10L275.71 35.10L275.71 35.10Q273.62 34.53 271.11 34.53L271.11 34.53L271.11 34.53Q268.44 34.53 266.25 35.13L266.25 35.13L266.25 35.13Q264.06 35.74 262.41 36.75L262.41 36.75L262.41 36.75Q260.76 37.77 259.67 39.10L259.67 39.10L259.67 39.10Q258.57 40.43 258.06 41.93L258.06 41.93ZM301.10 60.05L305.16 52.94L305.16 52.94Q308.97 55.22 313.54 56.30L313.54 56.30L313.54 56.30Q318.11 57.38 322.91 57.38L322.91 57.38L322.91 57.38Q326.14 57.38 328.30 56.94L328.30 56.94L328.30 56.94Q330.46 56.49 331.76 55.80L331.76 55.80L331.76 55.80Q333.06 55.10 333.60 54.21L333.60 54.21L333.60 54.21Q334.14 53.32 334.14 52.40L334.14 52.40L334.14 52.40Q334.14 51.07 332.98 50.11L332.98 50.11L332.98 50.11Q331.82 49.16 329.16 49.16L329.16 49.16L329.16 49.16Q327.92 49.16 326.49 49.32L326.49 49.32L326.49 49.32Q325.06 49.48 323.49 49.65L323.49 49.65L323.49 49.65Q321.92 49.83 320.22 49.99L320.22 49.99L320.22 49.99Q318.53 50.15 316.78 50.15L316.78 50.15L316.78 50.15Q312.97 50.15 310.29 49.32L310.29 49.32L310.29 49.32Q307.61 48.50 305.93 47.07L305.93 47.07L305.93 47.07Q304.24 45.64 303.48 43.69L303.48 43.69L303.48 43.69Q302.72 41.74 302.72 39.48L302.72 39.48L302.72 39.48Q302.72 36.63 304.05 34.21L304.05 34.21L304.05 34.21Q305.39 31.80 307.86 30.04L307.86 30.04L307.86 30.04Q310.34 28.28 313.84 27.29L313.84 27.29L313.84 27.29Q317.35 26.31 321.67 26.31L321.67 26.31L321.67 26.31Q323.92 26.31 326.38 26.58L326.38 26.58L326.38 26.58Q328.84 26.85 331.22 27.29L331.22 27.29L331.22 27.29Q333.60 27.74 335.79 28.33L335.79 28.33L335.79 28.33Q337.98 28.91 339.66 29.58L339.66 29.58L336.71 36.88L336.71 36.88Q333.13 35.55 329.55 34.77L329.55 34.77L329.55 34.77Q325.98 33.99 322.21 33.99L322.21 33.99L322.21 33.99Q319.57 33.99 317.75 34.39L317.75 34.39L317.75 34.39Q315.92 34.79 314.78 35.44L314.78 35.44L314.78 35.44Q313.64 36.09 313.11 36.93L313.11 36.93L313.11 36.93Q312.59 37.77 312.59 38.69L312.59 38.69L312.59 38.69Q312.59 39.36 312.86 39.90L312.86 39.90L312.86 39.90Q313.13 40.43 313.75 40.83L313.75 40.83L313.75 40.83Q314.37 41.23 315.37 41.43L315.37 41.43L315.37 41.43Q316.37 41.64 317.83 41.64L317.83 41.64L317.83 41.64Q319.16 41.64 320.65 41.48L320.65 41.48L320.65 41.48Q322.14 41.32 323.76 41.15L323.76 41.15L323.76 41.15Q325.38 40.97 327.11 40.82L327.11 40.82L327.11 40.82Q328.84 40.66 330.65 40.66L330.65 40.66L330.65 40.66Q334.01 40.66 336.54 41.45L336.54 41.45L336.54 41.45Q339.06 42.24 340.71 43.67L340.71 43.67L340.71 43.67Q342.36 45.10 343.19 47.04L343.19 47.04L343.19 47.04Q344.01 48.97 344.01 51.26L344.01 51.26L344.01 51.26Q344.01 54.21 342.65 56.75L342.65 56.75L342.65 56.75Q341.28 59.29 338.58 61.14L338.58 61.14L338.58 61.14Q335.89 63.00 331.87 64.05L331.87 64.05L331.87 64.05Q327.86 65.10 322.59 65.10L322.59 65.10L322.59 65.10Q319.35 65.10 316.34 64.70L316.34 64.70L316.34 64.70Q313.32 64.30 310.59 63.62L310.59 63.62L310.59 63.62Q307.86 62.94 305.47 62.02L305.47 62.02L305.47 62.02Q303.07 61.10 301.10 60.05L301.10 60.05ZM352.64 58.94L352.64 58.94L352.64 58.94Q352.64 57.67 353.17 56.54L353.17 56.54L353.17 56.54Q353.69 55.42 354.68 54.57L354.68 54.57L354.68 54.57Q355.66 53.73 357.06 53.26L357.06 53.26L357.06 53.26Q358.45 52.78 360.20 52.78L360.20 52.78L360.20 52.78Q361.94 52.78 363.34 53.26L363.34 53.26L363.34 53.26Q364.74 53.73 365.70 54.57L365.70 54.57L365.70 54.57Q366.67 55.42 367.20 56.54L367.20 56.54L367.20 56.54Q367.72 57.67 367.72 58.94L367.72 58.94L367.72 58.94Q367.72 60.21 367.20 61.33L367.20 61.33L367.20 61.33Q366.67 62.46 365.70 63.29L365.70 63.29L365.70 63.29Q364.74 64.11 363.34 64.60L363.34 64.60L363.34 64.60Q361.94 65.10 360.20 65.10L360.20 65.10L360.20 65.10Q358.45 65.10 357.06 64.60L357.06 64.60L357.06 64.60Q355.66 64.11 354.68 63.29L354.68 63.29L354.68 63.29Q353.69 62.46 353.17 61.33L353.17 61.33L353.17 61.33Q352.64 60.21 352.64 58.94ZM377.43 45.80L377.43 45.80L377.43 45.80Q377.43 41.67 378.94 38.10L378.94 38.10L378.94 38.10Q380.45 34.53 383.35 31.91L383.35 31.91L383.35 31.91Q386.25 29.29 390.46 27.80L390.46 27.80L390.46 27.80Q394.67 26.31 400.06 26.31L400.06 26.31L400.06 26.31Q402.41 26.31 404.79 26.60L404.79 26.60L404.79 26.60Q407.17 26.88 409.38 27.41L409.38 27.41L409.38 27.41Q411.58 27.93 413.52 28.64L413.52 28.64L413.52 28.64Q415.45 29.36 416.88 30.21L416.88 30.21L412.53 37.29L412.53 37.29Q409.46 35.86 406.71 35.20L406.71 35.20L406.71 35.20Q403.96 34.53 401.14 34.53L401.14 34.53L401.14 34.53Q397.90 34.53 395.33 35.37L395.33 35.37L395.33 35.37Q392.76 36.21 390.97 37.72L390.97 37.72L390.97 37.72Q389.17 39.23 388.24 41.28L388.24 41.28L388.24 41.28Q387.30 43.32 387.30 45.73L387.30 45.73L387.30 45.73Q387.30 48.15 388.30 50.19L388.30 50.19L388.30 50.19Q389.30 52.24 391.13 53.72L391.13 53.72L391.13 53.72Q392.95 55.19 395.54 56.03L395.54 56.03L395.54 56.03Q398.13 56.88 401.30 56.88L401.30 56.88L401.30 56.88Q404.79 56.88 407.88 55.89L407.88 55.89L407.88 55.89Q410.98 54.91 413.65 53.26L413.65 53.26L417.99 60.33L417.99 60.33Q416.31 61.35 414.34 62.22L414.34 62.22L414.34 62.22Q412.38 63.10 410.14 63.73L410.14 63.73L410.14 63.73Q407.90 64.37 405.44 64.73L405.44 64.73L405.44 64.73Q402.98 65.10 400.35 65.10L400.35 65.10L400.35 65.10Q394.98 65.10 390.73 63.64L390.73 63.64L390.73 63.64Q386.48 62.18 383.53 59.59L383.53 59.59L383.53 59.59Q380.57 57.00 379.00 53.48L379.00 53.48L379.00 53.48Q377.43 49.96 377.43 45.80ZM425.86 45.70L425.86 45.70L425.86 45.70Q425.86 41.67 427.50 38.15L427.50 38.15L427.50 38.15Q429.13 34.63 432.16 31.99L432.16 31.99L432.16 31.99Q435.20 29.36 439.50 27.83L439.50 27.83L439.50 27.83Q443.80 26.31 449.16 26.31L449.16 26.31L449.16 26.31Q454.52 26.31 458.82 27.83L458.82 27.83L458.82 27.83Q463.13 29.36 466.16 31.99L466.16 31.99L466.16 31.99Q469.19 34.63 470.82 38.15L470.82 38.15L470.82 38.15Q472.46 41.67 472.46 45.70L472.46 45.70L472.46 45.70Q472.46 49.73 470.82 53.26L470.82 53.26L470.82 53.26Q469.19 56.78 466.16 59.41L466.16 59.41L466.16 59.41Q463.13 62.05 458.82 63.57L458.82 63.57L458.82 63.57Q454.52 65.10 449.16 65.10L449.16 65.10L449.16 65.10Q443.80 65.10 439.50 63.57L439.50 63.57L439.50 63.57Q435.20 62.05 432.16 59.41L432.16 59.41L432.16 59.41Q429.13 56.78 427.50 53.26L427.50 53.26L427.50 53.26Q425.86 49.73 425.86 45.70ZM435.73 45.70L435.73 45.70L435.73 45.70Q435.73 47.96 436.64 49.97L436.64 49.97L436.64 49.97Q437.54 51.99 439.27 53.53L439.27 53.53L439.27 53.53Q441.00 55.07 443.49 55.97L443.49 55.97L443.49 55.97Q445.99 56.88 449.16 56.88L449.16 56.88L449.16 56.88Q452.33 56.88 454.83 55.97L454.83 55.97L454.83 55.97Q457.32 55.07 459.05 53.53L459.05 53.53L459.05 53.53Q460.78 51.99 461.68 49.97L461.68 49.97L461.68 49.97Q462.59 47.96 462.59 45.70L462.59 45.70L462.59 45.70Q462.59 43.45 461.68 41.42L461.68 41.42L461.68 41.42Q460.78 39.39 459.05 37.85L459.05 37.85L459.05 37.85Q457.32 36.31 454.83 35.40L454.83 35.40L454.83 35.40Q452.33 34.50 449.16 34.50L449.16 34.50L449.16 34.50Q445.99 34.50 443.49 35.40L443.49 35.40L443.49 35.40Q441.00 36.31 439.27 37.85L439.27 37.85L439.27 37.85Q437.54 39.39 436.64 41.42L436.64 41.42L436.64 41.42Q435.73 43.45 435.73 45.70ZM482.14 58.94L482.14 58.94L482.14 58.94Q482.14 57.67 482.66 56.54L482.66 56.54L482.66 56.54Q483.18 55.42 484.17 54.57L484.17 54.57L484.17 54.57Q485.15 53.73 486.55 53.26L486.55 53.26L486.55 53.26Q487.94 52.78 489.69 52.78L489.69 52.78L489.69 52.78Q491.44 52.78 492.83 53.26L492.83 53.26L492.83 53.26Q494.23 53.73 495.20 54.57L495.20 54.57L495.20 54.57Q496.16 55.42 496.69 56.54L496.69 56.54L496.69 56.54Q497.21 57.67 497.21 58.94L497.21 58.94L497.21 58.94Q497.21 60.21 496.69 61.33L496.69 61.33L496.69 61.33Q496.16 62.46 495.20 63.29L495.20 63.29L495.20 63.29Q494.23 64.11 492.83 64.60L492.83 64.60L492.83 64.60Q491.44 65.10 489.69 65.10L489.69 65.10L489.69 65.10Q487.94 65.10 486.55 64.60L486.55 64.60L486.55 64.60Q485.15 64.11 484.17 63.29L484.17 63.29L484.17 63.29Q483.18 62.46 482.66 61.33L482.66 61.33L482.66 61.33Q482.14 60.21 482.14 58.94ZM509.18 46.56L509.18 26.95L518.54 26.95L518.54 45.23L518.54 45.23Q518.54 47.83 519.11 49.97L519.11 49.97L519.11 49.97Q519.68 52.11 521.06 53.64L521.06 53.64L521.06 53.64Q522.44 55.16 524.74 56.00L524.74 56.00L524.74 56.00Q527.05 56.84 530.47 56.84L530.47 56.84L530.47 56.84Q532.09 56.84 533.76 56.49L533.76 56.49L533.76 56.49Q535.42 56.15 536.95 55.53L536.95 55.53L536.95 55.53Q538.47 54.91 539.79 54.05L539.79 54.05L539.79 54.05Q541.11 53.19 542.06 52.18L542.06 52.18L542.06 26.95L551.45 26.95L551.45 64.43L542.06 64.43L542.06 61.22L542.06 61.22Q538.60 63.29 535.11 64.17L535.11 64.17L535.11 64.17Q531.62 65.06 528.47 65.06L528.47 65.06L528.47 65.06Q523.33 65.06 519.67 63.83L519.67 63.83L519.67 63.83Q516.00 62.59 513.67 60.22L513.67 60.22L513.67 60.22Q511.34 57.86 510.26 54.42L510.26 54.42L510.26 54.42Q509.18 50.97 509.18 46.56L509.18 46.56ZM563.42 64.43L563.42 11.77L572.81 11.77L572.81 42.88L590.33 26.98L604.71 26.98L585.13 44.50L605.95 64.43L591.86 64.43L577.92 50.94L572.81 55.51L572.81 64.43L563.42 64.43Z" transform="rotate(0 305.4650158882141 38.43499946594238)"></path><defs id="SvgjsDefs1010"></defs></svg></g><g id="SvgjsG1013" transform="rotate(0 303.484375 425.3046875)"><svg xmlns="http://www.w3.org/2000/svg" xmlns:xlink="http://www.w3.org/1999/xlink" width="527.46875" viewBox="3.430000066757202 8.84000015258789 527.47998046875 21.959999084472656" overflow="visible" style="overflow: visible;" transform="" version="1.1" xmlns:svgjs="http://svgjs.com/svgjs" preserveAspectRatio="none" height="21.953125" x="39.75" y="414.328125" fill="#000000" stroke="none"><path stroke="none" fill="#2f56b9" d="M14.93 29.00L15.06 29.21L14.89 30.60L3.43 30.60L3.54 24.00L3.43 8.87L14.86 8.87L14.99 9.08L14.79 10.47L9.72 10.40L5.24 10.44L5.17 18.63L9.42 18.67L13.06 18.63L13.19 18.80L13.02 20.20L5.17 20.16L5.13 23.90L5.20 29.07L9.59 29.10L14.93 29.00ZM32.74 13.74L32.67 25.74L32.67 30.60L30.91 30.60L20.98 16.56L20.84 16.56L20.81 25.16L20.84 30.60L19.28 30.60L19.35 25.64L19.31 13.77L21.08 13.77L31.01 27.85L31.18 27.85L31.18 13.84L32.74 13.74ZM48.89 13.77L48.99 13.97L48.86 15.33L45.83 15.20L43.72 15.20L43.66 25.36L43.72 30.60L42.06 30.60L42.09 25.50L42.06 15.20L39.98 15.20L36.89 15.33L36.75 15.16L36.89 13.77L48.89 13.77ZM63.17 29.14L63.34 29.31L63.14 30.60L53.55 30.60L53.62 25.50L53.55 13.77L63.14 13.77L63.27 13.97L63.10 15.27L58.92 15.16L55.25 15.16L55.22 21.22L58.68 21.25L61.68 21.18L61.78 21.39L61.64 22.71L58.55 22.64L55.18 22.68L55.18 25.36L55.22 29.21L58.68 29.21L63.17 29.14ZM74.49 23.73L74.49 23.73Q76.64 26.96 79.29 30.19L79.29 30.19L79.29 30.43L79.29 30.43Q78.64 30.70 77.79 30.80L77.79 30.80L77.49 30.63L77.49 30.63Q74.97 27.23 73.07 24.11L73.07 24.11L69.60 24.14L69.60 25.36L69.63 30.60L67.97 30.60L68.03 25.50L67.97 13.77L72.93 13.74L72.93 13.74Q75.51 13.74 76.91 14.98L76.91 14.98L76.91 14.98Q78.30 16.22 78.30 18.50L78.30 18.50L78.30 18.50Q78.30 20.30 77.32 21.66L77.32 21.66L77.32 21.66Q76.33 23.02 74.49 23.73L74.49 23.73ZM69.67 15.16L69.60 22.71L73.13 22.78L73.13 22.78Q74.83 22.34 75.70 21.28L75.70 21.28L75.70 21.28Q76.57 20.23 76.57 18.63L76.57 18.63L76.57 18.63Q76.57 15.30 72.66 15.10L72.66 15.10L69.67 15.16ZM89.32 13.74L89.32 13.74Q91.90 13.74 93.30 14.99L93.30 14.99L93.30 14.99Q94.69 16.25 94.69 18.60L94.69 18.60L94.69 18.60Q94.69 21.39 92.99 22.93L92.99 22.93L92.99 22.93Q91.29 24.48 88.23 24.48L88.23 24.48L85.99 24.48L85.99 25.36L86.02 30.60L84.35 30.60L84.42 25.50L84.35 13.77L89.32 13.74ZM89.08 23.12L89.08 23.12Q90.95 22.85 91.95 21.73L91.95 21.73L91.95 21.73Q92.96 20.60 92.96 18.73L92.96 18.73L92.96 18.73Q92.96 17 91.97 16.08L91.97 16.08L91.97 16.08Q90.98 15.16 89.05 15.10L89.05 15.10L86.05 15.13L85.99 23.05L89.08 23.12ZM106.25 23.73L106.25 23.73Q108.39 26.96 111.04 30.19L111.04 30.19L111.04 30.43L111.04 30.43Q110.40 30.70 109.55 30.80L109.55 30.80L109.24 30.63L109.24 30.63Q106.73 27.23 104.82 24.11L104.82 24.11L101.35 24.14L101.35 25.36L101.39 30.60L99.72 30.60L99.79 25.50L99.72 13.77L104.69 13.74L104.69 13.74Q107.27 13.74 108.66 14.98L108.66 14.98L108.66 14.98Q110.06 16.22 110.06 18.50L110.06 18.50L110.06 18.50Q110.06 20.30 109.07 21.66L109.07 21.66L109.07 21.66Q108.09 23.02 106.25 23.73L106.25 23.73ZM101.42 15.16L101.35 22.71L104.89 22.78L104.89 22.78Q106.59 22.34 107.46 21.28L107.46 21.28L107.46 21.28Q108.32 20.23 108.32 18.63L108.32 18.63L108.32 18.63Q108.32 15.30 104.41 15.10L104.41 15.10L101.42 15.16ZM117.81 13.77L117.74 25.36L117.78 30.60L116.11 30.60L116.18 25.50L116.11 13.77L117.81 13.77ZM129.06 13.67L129.06 13.67Q131.04 13.67 132.87 14.45L132.87 14.45L132.60 16.08L132.29 16.15L132.29 16.15Q130.59 14.99 128.89 14.99L128.89 14.99L128.89 14.99Q127.19 14.99 126.19 15.93L126.19 15.93L126.19 15.93Q125.19 16.86 125.19 18.02L125.19 18.02L125.19 18.02Q125.19 19.14 126.09 19.82L126.09 19.82L126.09 19.82Q126.99 20.50 128.83 21.28L128.83 21.28L128.83 21.28Q130.36 22.00 131.24 22.52L131.24 22.52L131.24 22.52Q132.12 23.05 132.77 23.92L132.77 23.92L132.77 23.92Q133.42 24.79 133.42 26.04L133.42 26.04L133.42 26.04Q133.42 27.30 132.72 28.37L132.72 28.37L132.72 28.37Q132.02 29.44 130.73 30.09L130.73 30.09L130.73 30.09Q129.44 30.74 127.74 30.74L127.74 30.74L127.74 30.74Q126.58 30.74 125.36 30.45L125.36 30.45L125.36 30.45Q124.13 30.16 123.11 29.58L123.11 29.58L123.28 27.85L123.52 27.74L123.52 27.74Q124.41 28.56 125.61 28.98L125.61 28.98L125.61 28.98Q126.82 29.41 127.91 29.41L127.91 29.41L127.91 29.41Q129.61 29.41 130.68 28.48L130.68 28.48L130.68 28.48Q131.75 27.54 131.75 26.28L131.75 26.28L131.75 26.28Q131.75 25.09 130.85 24.40L130.85 24.40L130.85 24.40Q129.95 23.70 128.04 22.81L128.04 22.81L128.04 22.81Q126.58 22.13 125.68 21.61L125.68 21.61L125.68 21.61Q124.78 21.08 124.15 20.23L124.15 20.23L124.15 20.23Q123.52 19.38 123.52 18.16L123.52 18.16L123.52 18.16Q123.52 16.90 124.22 15.88L124.22 15.88L124.22 15.88Q124.92 14.86 126.17 14.26L126.17 14.26L126.17 14.26Q127.43 13.67 129.06 13.67L129.06 13.67ZM148.31 29.14L148.48 29.31L148.27 30.60L138.69 30.60L138.75 25.50L138.69 13.77L148.27 13.77L148.41 13.97L148.24 15.27L144.06 15.16L140.39 15.16L140.35 21.22L143.82 21.25L146.81 21.18L146.91 21.39L146.78 22.71L143.68 22.64L140.32 22.68L140.32 25.36L140.35 29.21L143.82 29.21L148.31 29.14ZM164.83 8.84L164.83 8.84Q167.93 8.84 169.59 10.45L169.59 10.45L169.59 10.45Q171.26 12.07 171.26 15.06L171.26 15.06L171.26 15.06Q171.26 18.60 169.24 20.59L169.24 20.59L169.24 20.59Q167.21 22.58 163.54 22.58L163.54 22.58L160.75 22.58L160.75 23.90L160.82 30.60L159.05 30.60L159.15 24.00L159.05 8.87L164.83 8.84ZM164.56 21.08L164.56 21.08Q166.94 20.77 168.20 19.24L168.20 19.24L168.20 19.24Q169.46 17.71 169.46 15.20L169.46 15.20L169.46 15.20Q169.46 12.85 168.22 11.63L168.22 11.63L168.22 11.63Q166.97 10.40 164.63 10.34L164.63 10.34L160.85 10.40L160.79 21.01L164.56 21.08ZM185.67 29.14L185.84 29.31L185.64 30.60L176.05 30.60L176.12 25.50L176.05 13.77L185.64 13.77L185.78 13.97L185.61 15.27L181.42 15.16L177.75 15.16L177.72 21.22L181.19 21.25L184.18 21.18L184.28 21.39L184.14 22.71L181.05 22.64L177.68 22.68L177.68 25.36L177.72 29.21L181.19 29.21L185.67 29.14ZM197.00 23.73L197.00 23.73Q199.14 26.96 201.79 30.19L201.79 30.19L201.79 30.43L201.79 30.43Q201.14 30.70 200.29 30.80L200.29 30.80L199.99 30.63L199.99 30.63Q197.47 27.23 195.57 24.11L195.57 24.11L192.10 24.14L192.10 25.36L192.13 30.60L190.47 30.60L190.54 25.50L190.47 13.77L195.43 13.74L195.43 13.74Q198.02 13.74 199.41 14.98L199.41 14.98L199.41 14.98Q200.80 16.22 200.80 18.50L200.80 18.50L200.80 18.50Q200.80 20.30 199.82 21.66L199.82 21.66L199.82 21.66Q198.83 23.02 197.00 23.73L197.00 23.73ZM192.17 15.16L192.10 22.71L195.64 22.78L195.64 22.78Q197.34 22.34 198.20 21.28L198.20 21.28L198.20 21.28Q199.07 20.23 199.07 18.63L199.07 18.63L199.07 18.63Q199.07 15.30 195.16 15.10L195.16 15.10L192.17 15.16ZM211.75 15.16L208.35 15.16L208.32 21.59L211.51 21.62L214.40 21.56L214.54 21.73L214.40 23.02L208.28 23.02L208.28 25.36L208.35 30.60L206.69 30.60L206.72 25.50L206.69 13.77L215.87 13.77L215.97 13.97L215.80 15.27L211.75 15.16ZM225.90 13.60L225.90 13.60Q229.50 13.60 231.44 15.76L231.44 15.76L231.44 15.76Q233.38 17.92 233.38 21.86L233.38 21.86L233.38 21.86Q233.38 26.15 231.32 28.46L231.32 28.46L231.32 28.46Q229.26 30.77 225.49 30.77L225.49 30.77L225.49 30.77Q221.88 30.77 219.93 28.56L219.93 28.56L219.93 28.56Q217.97 26.35 217.97 22.30L217.97 22.30L217.97 22.30Q217.97 18.12 220.03 15.86L220.03 15.86L220.03 15.86Q222.09 13.60 225.90 13.60L225.90 13.60ZM225.76 15.06L225.76 15.06Q219.71 15.06 219.71 22.10L219.71 22.10L219.71 22.10Q219.71 29.34 225.56 29.34L225.56 29.34L225.56 29.34Q228.55 29.34 230.11 27.54L230.11 27.54L230.11 27.54Q231.68 25.74 231.68 22.13L231.68 22.13L231.68 22.13Q231.68 15.06 225.76 15.06L225.76 15.06ZM244.97 23.73L244.97 23.73Q247.11 26.96 249.76 30.19L249.76 30.19L249.76 30.43L249.76 30.43Q249.12 30.70 248.27 30.80L248.27 30.80L247.96 30.63L247.96 30.63Q245.45 27.23 243.54 24.11L243.54 24.11L240.07 24.14L240.07 25.36L240.11 30.60L238.44 30.60L238.51 25.50L238.44 13.77L243.41 13.74L243.41 13.74Q245.99 13.74 247.38 14.98L247.38 14.98L247.38 14.98Q248.78 16.22 248.78 18.50L248.78 18.50L248.78 18.50Q248.78 20.30 247.79 21.66L247.79 21.66L247.79 21.66Q246.81 23.02 244.97 23.73L244.97 23.73ZM240.14 15.16L240.07 22.71L243.61 22.78L243.61 22.78Q245.31 22.34 246.18 21.28L246.18 21.28L246.18 21.28Q247.04 20.23 247.04 18.63L247.04 18.63L247.04 18.63Q247.04 15.30 243.13 15.10L243.13 15.10L240.14 15.16ZM270.44 13.77L272.24 30.60L270.71 30.60L270.23 25.47L269.18 16.56L269.01 16.56L263.67 28.59L262.24 28.59L257.11 16.56L256.90 16.56L255.88 25.33L255.37 30.60L253.88 30.60L255.78 13.77L257.75 13.77L258.71 16.35L262.96 26.35L263.09 26.35L267.58 16.15L268.53 13.77L270.44 13.77ZM284.27 13.77L290.46 30.60L288.73 30.60L288.35 29.07L287.10 25.70L279.07 25.70L277.75 29.00L277.30 30.60L275.60 30.60L282.37 13.77L284.27 13.77ZM283.05 24.34L286.59 24.31L283.36 15.57L283.19 15.57L279.65 24.31L283.05 24.34ZM308.55 13.74L308.48 25.74L308.48 30.60L306.71 30.60L296.79 16.56L296.65 16.56L296.62 25.16L296.65 30.60L295.09 30.60L295.15 25.64L295.12 13.77L296.89 13.77L306.82 27.85L306.99 27.85L306.99 13.84L308.55 13.74ZM320.76 13.63L320.76 13.63Q323.54 13.63 325.65 14.96L325.65 14.96L325.31 16.49L325.04 16.56L325.04 16.56Q324.16 15.84 323.02 15.45L323.02 15.45L323.02 15.45Q321.88 15.06 320.62 15.06L320.62 15.06L320.62 15.06Q317.73 15.06 316.22 16.86L316.22 16.86L316.22 16.86Q314.70 18.67 314.70 22.17L314.70 22.17L314.70 22.17Q314.70 25.67 316.18 27.51L316.18 27.51L316.18 27.51Q317.66 29.34 320.45 29.34L320.45 29.34L320.45 29.34Q321.71 29.34 322.98 28.90L322.98 28.90L322.98 28.90Q324.26 28.46 325.31 27.68L325.31 27.68L325.55 27.78L325.41 29.31L325.41 29.31Q323.07 30.77 320.42 30.77L320.42 30.77L320.42 30.77Q316.81 30.77 314.87 28.56L314.87 28.56L314.87 28.56Q312.94 26.35 312.94 22.27L312.94 22.27L312.94 22.27Q312.94 18.12 314.98 15.88L314.98 15.88L314.98 15.88Q317.02 13.63 320.76 13.63L320.76 13.63ZM339.93 29.14L340.10 29.31L339.90 30.60L330.31 30.60L330.38 25.50L330.31 13.77L339.90 13.77L340.03 13.97L339.86 15.27L335.68 15.16L332.01 15.16L331.98 21.22L335.44 21.25L338.44 21.18L338.54 21.39L338.40 22.71L335.31 22.64L331.94 22.68L331.94 25.36L331.98 29.21L335.44 29.21L339.93 29.14ZM369.41 8.87L371.62 30.60L369.99 30.60L369.41 23.97L368.08 11.93L367.88 11.93L361.25 27.98L359.65 27.98L353.26 11.93L353.06 11.93L351.73 23.87L351.08 30.60L349.52 30.60L351.87 8.87L353.87 8.87L355.10 12.21L360.43 25.64L360.60 25.64L366.25 11.93L367.40 8.87L369.41 8.87ZM383.59 13.77L389.78 30.60L388.04 30.60L387.67 29.07L386.41 25.70L378.39 25.70L377.06 29.00L376.62 30.60L374.92 30.60L381.68 13.77L383.59 13.77ZM382.36 24.34L385.90 24.31L382.67 15.57L382.50 15.57L378.96 24.31L382.36 24.34ZM407.86 13.74L407.80 25.74L407.80 30.60L406.03 30.60L396.10 16.56L395.96 16.56L395.93 25.16L395.96 30.60L394.40 30.60L394.47 25.64L394.43 13.77L396.20 13.77L406.13 27.85L406.30 27.85L406.30 13.84L407.86 13.74ZM420.85 13.77L427.04 30.60L425.31 30.60L424.93 29.07L423.67 25.70L415.65 25.70L414.32 29.00L413.88 30.60L412.18 30.60L418.95 13.77L420.85 13.77ZM419.63 24.34L423.16 24.31L419.93 15.57L419.76 15.57L416.23 24.31L419.63 24.34ZM438.23 13.63L438.23 13.63Q440.81 13.63 443.43 14.89L443.43 14.89L442.88 16.49L442.65 16.49L442.65 16.49Q440.27 15.06 438.02 15.06L438.02 15.06L438.02 15.06Q434.79 15.06 433.11 16.90L433.11 16.90L433.11 16.90Q431.43 18.73 431.43 22.41L431.43 22.41L431.43 22.41Q431.43 29.34 437.44 29.34L437.44 29.34L437.44 29.34Q438.50 29.34 439.42 29.19L439.42 29.19L439.42 29.19Q440.33 29.04 441.76 28.59L441.76 28.59L441.76 26.35L441.73 24.07L443.29 23.97L443.29 29.82L443.29 29.82Q441.42 30.33 440.10 30.53L440.10 30.53L440.10 30.53Q438.77 30.74 437.38 30.74L437.38 30.74L437.38 30.74Q433.60 30.74 431.63 28.59L431.63 28.59L431.63 28.59Q429.66 26.45 429.66 22.44L429.66 22.44L429.66 22.44Q429.66 18.19 431.90 15.91L431.90 15.91L431.90 15.91Q434.15 13.63 438.23 13.63L438.23 13.63ZM458.86 29.14L459.03 29.31L458.83 30.60L449.24 30.60L449.31 25.50L449.24 13.77L458.83 13.77L458.97 13.97L458.80 15.27L454.61 15.16L450.94 15.16L450.91 21.22L454.38 21.25L457.37 21.18L457.47 21.39L457.33 22.71L454.24 22.64L450.87 22.68L450.87 25.36L450.91 29.21L454.38 29.21L458.86 29.14ZM479.26 13.77L481.07 30.60L479.54 30.60L479.06 25.47L478.01 16.56L477.84 16.56L472.50 28.59L471.07 28.59L465.94 16.56L465.73 16.56L464.71 25.33L464.20 30.60L462.71 30.60L464.61 13.77L466.58 13.77L467.53 16.35L471.78 26.35L471.92 26.35L476.41 16.15L477.36 13.77L479.26 13.77ZM496.40 29.14L496.57 29.31L496.37 30.60L486.78 30.60L486.85 25.50L486.78 13.77L496.37 13.77L496.50 13.97L496.33 15.27L492.15 15.16L488.48 15.16L488.44 21.22L491.91 21.25L494.90 21.18L495.01 21.39L494.87 22.71L491.78 22.64L488.41 22.68L488.41 25.36L488.44 29.21L491.91 29.21L496.40 29.14ZM514.66 13.74L514.59 25.74L514.59 30.60L512.82 30.60L502.89 16.56L502.76 16.56L502.72 25.16L502.76 30.60L501.19 30.60L501.26 25.64L501.23 13.77L503.00 13.77L512.92 27.85L513.09 27.85L513.09 13.84L514.66 13.74ZM530.81 13.77L530.91 13.97L530.77 15.33L527.75 15.20L525.64 15.20L525.57 25.36L525.64 30.60L523.97 30.60L524.01 25.50L523.97 15.20L521.90 15.20L518.81 15.33L518.67 15.16L518.81 13.77L530.81 13.77Z" transform="rotate(0 267.1699903011322 19.81999969482422)"></path><defs id="SvgjsDefs1012"></defs></svg></g></svg>