<?xml version="1.0" encoding="utf-8"?>
<!-- Generator: Adobe Illustrator 19.0.0, SVG Export Plug-In . SVG Version: 6.00 Build 0)  -->
<svg version="1.1"
	 id="Layer_1" xmlns:svg="http://www.w3.org/2000/svg" xmlns:dc="http://purl.org/dc/elements/1.1/" xmlns:cc="http://creativecommons.org/ns#" xmlns:sodipodi="http://sodipodi.sourceforge.net/DTD/sodipodi-0.dtd" xmlns:inkscape="http://www.inkscape.org/namespaces/inkscape" xmlns:rdf="http://www.w3.org/1999/02/22-rdf-syntax-ns#" sodipodi:docname="full_black.svg" inkscape:version="0.92.2 (5c3e80d, 2017-08-06)"
	 xmlns="http://www.w3.org/2000/svg" xmlns:xlink="http://www.w3.org/1999/xlink" x="0px" y="0px" viewBox="-74 256.2 758.1 394.9"
	 style="enable-background:new -74 256.2 758.1 394.9;" xml:space="preserve">
<style type="text/css">
	.st0{fill:#FFFFFF;}
	.st1{enable-background:new    ;}
</style>
<sodipodi:namedview  showgrid="false" gridtolerance="10" fit-margin-left="4" fit-margin-top="4" guidetolerance="10" inkscape:zoom="0.52033956" bordercolor="#666666" borderopacity="1" objecttolerance="10" pagecolor="#ffffff" id="namedview8" inkscape:cx="543.57306" inkscape:cy="84.278037" inkscape:current-layer="Layer_1" inkscape:window-maximized="1" inkscape:window-y="27" inkscape:window-x="1507" fit-margin-bottom="4" fit-margin-right="4" inkscape:window-height="1025" inkscape:pageshadow="2" inkscape:window-width="1853" inkscape:pageopacity="0">
	</sodipodi:namedview>
<g id="XMLID_11_" transform="matrix(0.31274474,0,0,0.31274474,228.64949,-6.3518509)">
	<g id="XMLID_6_">
		<path id="XMLID_9_" inkscape:connector-curvature="0" class="st0" d="M607.7,852.2c8.7,4.8,11.2,10.4,7.6,19.9
			c-2.8,7.4-6.7,14.5-10.5,21.5c-21.8,40.7-43.6,81.3-65.7,121.8c-8.1,14.9-20.6,23.1-38.2,23.1c-218.7-0.1-437.4-0.1-656.1-0.1
			c-11.9,0-19.9-4.9-23.1-14.6c-0.7-2.2-0.9-4.7-0.9-7c-0.1-46.1,0-92.2,0-138.3c0-12.1,6.1-21,17.6-25.5c0.4-0.1,0.6-0.5,0.9-0.8
			C95.4,852.2,351.5,852.2,607.7,852.2z"/>
		<path id="XMLID_8_" inkscape:connector-curvature="0" class="st0" d="M228,1695.7c-125.1,0-250.2-0.2-375.3,0.2
			c-17,0.1-27.5-12.4-27.5-26.9c-0.2-45.8-0.2-91.6,0-137.5c0-13.4,9.3-22,23-22c26.3,0,52.6,0,78.9,0c192.9,0,385.7,0,578.6-0.1
			c17.4,0,29.9,7.9,38,22.7c19.2,35.2,38.2,70.6,57.2,105.9c5.8,10.7,11.8,21.4,17.1,32.4c2,4.1,2.8,9.1,3.1,13.7
			c0.4,6.4-4.5,11.1-10.9,11.5c-1.4,0.1-2.8,0-4.2,0C479.9,1695.7,354,1695.7,228,1695.7L228,1695.7z"/>
		<path id="XMLID_7_" inkscape:connector-curvature="0" class="st0" d="M34.9,1367c-64.4,0-128.8,0-193.2,0
			c-13.1,0-19.8-6.1-21-19.2c-0.1-1.1-0.1-2.2-0.1-3.4c0-47,0-93.9,0-140.9c0-5.9,1.5-11.4,4.8-16.3c2.9-4.2,6.7-6.4,12-6.4
			c131.7,0.1,263.4,0.1,395.2,0c6.5,0,11.1,2.7,13.5,8.2c2,4.5,3.7,9.6,3.7,14.5c0.3,47,0.2,93.9,0,140.9c0,4.3-1.3,8.9-2.9,13
			c-2.6,6.5-7.5,9.8-15.1,9.7C166.2,1366.9,100.6,1367,34.9,1367L34.9,1367z"/>
	</g>
</g>
<g class="st1">
	<path class="st0" d="M-67.2,647.1c-0.8,0-1.4-0.3-2-0.8c-0.6-0.5-0.8-1.2-0.8-2v-61.7c0-0.8,0.3-1.4,0.8-2c0.6-0.6,1.2-0.9,2-0.8
		l37.2,0.1c0.8,0,1.4,0.3,2,0.8c0.6,0.6,0.8,1.2,0.8,2c0,0.8-0.3,1.5-0.8,2c-0.5,0.5-1.2,0.8-2,0.8l-34.4-0.1v25.2h25.7
		c0.8,0,1.4,0.3,2,0.8c0.6,0.5,0.8,1.2,0.8,2s-0.3,1.4-0.8,2c-0.5,0.6-1.2,0.8-2,0.8h-25.7v25.2H-30c0.8,0,1.4,0.3,2,0.8
		c0.6,0.5,0.8,1.2,0.8,2s-0.3,1.4-0.8,2c-0.5,0.6-1.2,0.8-2,0.8H-67.2z"/>
	<path class="st0" d="M55.3,646.1L55.3,646.1L55.3,646.1l-43-55.4v53.5c0,0.8-0.3,1.4-0.8,2c-0.5,0.6-1.2,0.8-2,0.8
		c-0.8,0-1.4-0.3-2-0.8c-0.6-0.5-0.8-1.2-0.8-2v-61.7c0-1.3,0.6-2.2,1.9-2.7c1.3-0.4,2.3-0.1,3.1,0.9l42.9,55.3v-53.5
		c0-0.8,0.3-1.4,0.8-2c0.6-0.6,1.2-0.8,2-0.8c0.8,0,1.5,0.3,2,0.8c0.5,0.5,0.8,1.2,0.8,2v61.7c0-0.1,0,0,0,0.2c0,0.1,0,0.2,0,0.3
		c0,0.1,0,0.1,0,0.2c0,0.1-0.1,0.2-0.1,0.3c0,0.1-0.1,0.1-0.1,0.2c0,0.1-0.1,0.2-0.1,0.2c0,0.1-0.1,0.1-0.1,0.2
		c-0.1,0.1-0.1,0.2-0.2,0.2c0,0-0.1,0.1-0.2,0.2c-0.2,0.1-0.2,0.2-0.1,0.1c0.1,0,0,0-0.1,0.1c0,0-0.1,0.1-0.1,0.1
		c-0.1,0.1-0.2,0.1-0.3,0.1c-0.1,0-0.1,0.1-0.2,0.1c-0.1,0-0.2,0.1-0.3,0.1c-0.1,0-0.2,0-0.2,0c-0.2,0-0.4,0-0.5,0
		c-0.2,0-0.4,0-0.6,0l-0.2,0c-0.2-0.1-0.3-0.1-0.4-0.1c0,0-0.1-0.1-0.2-0.1c-0.1-0.1-0.2-0.1-0.3-0.2c0,0-0.1-0.1-0.2-0.1
		c-0.1-0.1-0.1-0.1-0.1-0.1S55.3,646.2,55.3,646.1z"/>
	<path class="st0" d="M114,585.4H95.5c-0.8,0-1.5-0.3-2-0.8c-0.5-0.5-0.8-1.2-0.8-2s0.3-1.4,0.8-2c0.6-0.6,1.2-0.8,2-0.8h42.6
		c0.8,0,1.4,0.3,2,0.8c0.6,0.5,0.8,1.2,0.8,2s-0.3,1.4-0.8,2c-0.5,0.5-1.2,0.8-2,0.8h-18.5v58.8c0,0.8-0.3,1.5-0.8,2
		c-0.6,0.5-1.2,0.8-2,0.8c-0.8,0-1.4-0.3-2-0.8c-0.5-0.6-0.8-1.2-0.8-2V585.4z"/>
	<path class="st0" d="M196.8,580c5.4,0,10,1.8,13.9,5.3c3.8,3.5,5.7,7.8,5.7,12.8c0,4.4-1.6,8.3-4.7,11.7c-3.1,3.3-6.9,5.4-11.6,6.1
		l13.4,27.2c0.3,0.7,0.4,1.4,0.1,2.1c-0.3,0.7-0.7,1.3-1.4,1.6c-0.4,0.2-0.8,0.3-1.2,0.3c-1.2,0-2-0.5-2.5-1.5L194,616.2h-15.7v27.7
		c0,0.8-0.3,1.4-0.8,2c-0.5,0.5-1.2,0.8-2,0.8c-0.8,0-1.4-0.3-2-0.8c-0.5-0.6-0.8-1.2-0.8-2v-61.1c0-0.8,0.3-1.4,0.8-2
		c0.6-0.5,1.2-0.8,2-0.8H196.8z M210.9,598.1c0-3.5-1.4-6.4-4.1-8.9c-2.8-2.5-6.1-3.7-9.9-3.7h-18.4v25.1h18.8
		c3.8-0.1,7-1.3,9.7-3.8C209.5,604.4,210.9,601.5,210.9,598.1z"/>
	<path class="st0" d="M280.2,647.1c-9.3,0-17.2-3.3-23.8-9.8s-9.8-14.5-9.8-23.8s3.3-17.2,9.8-23.8s14.5-9.8,23.8-9.8
		s17.2,3.3,23.8,9.8s9.8,14.5,9.8,23.8s-3.3,17.2-9.8,23.8S289.5,647.1,280.2,647.1z M280.2,585.4c-7.7,0-14.3,2.8-19.8,8.3
		c-5.5,5.5-8.2,12.1-8.2,19.8s2.7,14.3,8.2,19.8c5.5,5.5,12.1,8.2,19.8,8.2c7.7,0,14.3-2.7,19.8-8.2c5.5-5.5,8.3-12.1,8.3-19.8
		s-2.8-14.3-8.3-19.8C294.5,588.2,287.9,585.4,280.2,585.4z"/>
	<path class="st0" d="M437.6,579.9c0.8,0.3,1.3,0.7,1.6,1.5c0.3,0.7,0.3,1.4,0.1,2.2l-21.7,61.7c0,0,0,0-0.1,0.2c0,0.1,0,0.1,0,0.1
		c-0.1,0.1-0.1,0.2-0.2,0.3v0l0,0c-0.1,0.1-0.2,0.3-0.3,0.4c0,0,0,0-0.1,0.1c-0.1,0.1-0.2,0.1-0.3,0.2c0,0-0.1,0.1-0.1,0.1
		c-0.1,0.1-0.2,0.1-0.3,0.2h0c0,0,0,0,0,0c0,0,0,0,0,0c-0.1,0-0.2,0.1-0.3,0.1c-0.1,0-0.2,0-0.1,0c-0.2,0-0.3,0-0.5,0
		c-0.1,0-0.3,0-0.4,0c0,0,0,0-0.1,0c-0.1,0-0.2-0.1-0.3-0.1c0,0,0,0,0,0c0,0,0,0,0,0c-0.2-0.1-0.3-0.1-0.4-0.2
		c-0.1,0-0.1-0.1-0.1-0.1c-0.1-0.1-0.2-0.1-0.3-0.2c-0.1-0.1-0.1-0.1-0.1-0.1c-0.1-0.1-0.3-0.3-0.4-0.4v0c0,0,0,0,0,0
		c-0.1-0.1-0.1-0.2-0.2-0.3c0,0,0-0.1-0.1-0.1c0-0.2,0-0.2,0-0.2l-19-54.2l-19,54.2c0,0,0,0-0.1,0.2c0,0.1,0,0.1,0,0.1
		c-0.1,0.1-0.1,0.2-0.2,0.3v0l0,0c-0.1,0.1-0.2,0.3-0.3,0.4c0,0,0,0-0.1,0.1c-0.1,0.1-0.2,0.1-0.3,0.2c-0.1,0-0.1,0.1-0.1,0.1
		c-0.1,0.1-0.3,0.1-0.4,0.2h0l0,0c0,0,0,0,0,0s-0.2,0.1-0.3,0.1c-0.1,0-0.2,0-0.1,0c-0.2,0-0.3,0-0.5,0c-0.1,0-0.3,0-0.4,0
		c0,0,0,0-0.1,0c-0.1,0-0.2-0.1-0.3-0.1c0,0,0,0,0,0l0,0h0c-0.1-0.1-0.3-0.1-0.4-0.2c-0.1,0-0.1-0.1-0.1-0.1
		c-0.1-0.1-0.2-0.1-0.3-0.2c-0.1-0.1-0.1-0.1-0.1-0.1c-0.1-0.1-0.2-0.3-0.3-0.4c0,0,0,0,0,0l0,0c-0.1-0.1-0.1-0.2-0.2-0.3
		c0,0,0-0.1,0-0.1c-0.1-0.2-0.1-0.2-0.1-0.2l-21.7-61.7c-0.3-0.8-0.3-1.5,0.1-2.2c0.3-0.7,0.9-1.2,1.6-1.5c0.8-0.3,1.5-0.2,2.2,0.1
		s1.2,0.9,1.5,1.6l19,54.2l19-54.2c0,0.1,0,0,0.1-0.1c0-0.1,0.1-0.2,0.1-0.3c0.1-0.1,0.1-0.1,0.1-0.2c0.1-0.1,0.1-0.2,0.2-0.2
		c0.1-0.1,0.1-0.2,0.2-0.2c0.1-0.1,0.1-0.1,0.2-0.2s0.1-0.1,0.2-0.2c0.1-0.1,0.2-0.1,0.3-0.1c0.1,0,0.1-0.1,0.2-0.1
		c0.2-0.1,0.3-0.1,0.1-0.1c-0.1,0,0,0,0.1,0c0.1,0,0.2-0.1,0.3-0.1c0.1,0,0.2,0,0.3,0c0.1,0,0.2,0,0.3,0s0.2,0,0.3,0
		c0,0,0.1,0,0.2,0c0.1,0,0.2,0.1,0.3,0.1c0.1,0,0.2,0,0.1,0l0,0c0,0,0.1,0,0.1,0c0.1,0,0.2,0.1,0.2,0.1c0.1,0.1,0.2,0.1,0.2,0.1
		c0.1,0.1,0.1,0.1,0.2,0.2c0.1,0.1,0.1,0.1,0.2,0.2s0.1,0.1,0.2,0.2s0.1,0.1,0.1,0.2c0.1,0.1,0.1,0.1,0.1,0.2
		c0.1,0.1,0.1,0.2,0.1,0.3c0.1,0.2,0.1,0.2,0,0.1l19,54.2l19-54.2c0.3-0.7,0.7-1.3,1.5-1.6c0.7-0.3,1-0.5,1-0.5
		S436.9,579.6,437.6,579.9z"/>
	<path class="st0" d="M470.3,646.9c-0.7-0.3-1.2-0.8-1.5-1.5c-0.3-0.7-0.3-1.4,0-2.2l6.5-15.7v0l19-45.8c0.1-0.2,0.1-0.3,0.2-0.5
		l0.2-0.2c0.1-0.1,0.2-0.2,0.2-0.2s0.1-0.1,0.2-0.2c0.2-0.1,0.2-0.2,0.2-0.1c0.3-0.2,0.6-0.4,1-0.4h0.2c0.2,0,0.3,0,0.3,0
		s0.1,0,0.3,0c0.2,0,0.3,0,0.2,0c0.4,0.1,0.7,0.2,1,0.4l0.2,0.1c0.1,0.1,0.2,0.2,0.2,0.2c0,0,0.1,0.1,0.2,0.2
		c0.1,0.2,0.2,0.2,0.2,0.2c0.1,0.2,0.2,0.4,0.2,0.5l19,45.8v0l6.5,15.7c0.3,0.7,0.3,1.4,0,2.2c-0.3,0.7-0.8,1.2-1.5,1.5
		c-0.3,0.2-0.7,0.2-1.1,0.2c-1.3,0-2.1-0.6-2.6-1.7l-5.8-14h-34.2l-5.8,14c-0.5,1.2-1.3,1.7-2.6,1.7c-0.4,0-0.6,0-0.6,0
		S470.6,647,470.3,646.9z M511.7,625.8L496.9,590L482,625.8H511.7z"/>
	<path class="st0" d="M582.3,580c5.4,0,10,1.8,13.9,5.3c3.8,3.5,5.7,7.8,5.7,12.8c0,4.4-1.6,8.3-4.7,11.7c-3.1,3.3-6.9,5.4-11.6,6.1
		l13.4,27.2c0.3,0.7,0.4,1.4,0.1,2.1s-0.7,1.3-1.4,1.6c-0.4,0.2-0.8,0.3-1.2,0.3c-1.2,0-2-0.5-2.5-1.5l-14.5-29.4h-15.7v27.7
		c0,0.8-0.3,1.4-0.8,2c-0.5,0.5-1.2,0.8-2,0.8c-0.8,0-1.4-0.3-2-0.8c-0.5-0.6-0.8-1.2-0.8-2v-61.1c0-0.8,0.3-1.4,0.8-2
		c0.6-0.5,1.2-0.8,2-0.8H582.3z M596.3,598.1c0-3.5-1.4-6.4-4.1-8.9c-2.8-2.5-6.1-3.7-9.9-3.7h-18.4v25.1h18.8
		c3.8-0.1,7-1.3,9.7-3.8C595,604.4,596.3,601.5,596.3,598.1z"/>
	<path class="st0" d="M639.7,647.1c-0.8,0-1.4-0.3-2-0.8c-0.6-0.5-0.8-1.2-0.8-2v-61.7c0-0.8,0.3-1.4,0.8-2c0.6-0.6,1.2-0.9,2-0.8
		l37.2,0.1c0.8,0,1.4,0.3,2,0.8c0.6,0.6,0.8,1.2,0.8,2c0,0.8-0.3,1.5-0.8,2c-0.5,0.5-1.2,0.8-2,0.8l-34.4-0.1v25.2h25.7
		c0.8,0,1.4,0.3,2,0.8c0.6,0.5,0.8,1.2,0.8,2s-0.3,1.4-0.8,2c-0.5,0.6-1.2,0.8-2,0.8h-25.7v25.2h34.4c0.8,0,1.4,0.3,2,0.8
		c0.6,0.5,0.8,1.2,0.8,2s-0.3,1.4-0.8,2c-0.5,0.6-1.2,0.8-2,0.8H639.7z"/>
</g>
</svg>
