<?xml version="1.0" encoding="UTF-8" standalone="no"?>
<svg
   xmlns:dc="http://purl.org/dc/elements/1.1/"
   xmlns:cc="http://creativecommons.org/ns#"
   xmlns:rdf="http://www.w3.org/1999/02/22-rdf-syntax-ns#"
   xmlns:svg="http://www.w3.org/2000/svg"
   xmlns="http://www.w3.org/2000/svg"
   version="1.1"
   id="Layer_1"
   x="0px"
   y="0px"
   viewBox="-74 256.2 758.1 394.9"
   style="enable-background:new -74 256.2 758.1 394.9;"
   xml:space="preserve"><metadata
   id="metadata33"><rdf:RDF><cc:Work
       rdf:about=""><dc:format>image/svg+xml</dc:format><dc:type
         rdf:resource="http://purl.org/dc/dcmitype/StillImage" /><dc:title></dc:title></cc:Work></rdf:RDF></metadata><defs
   id="defs31">
	

		
		
		
	</defs>
<style
   type="text/css"
   id="style2">
	.st0{enable-background:new    ;}
</style>

<path
   id="XMLID_9_"
   d="m 426.025,260.16922 c 2.72088,1.50117 3.50274,3.25254 2.37686,6.22362 -0.87569,2.31431 -2.09539,4.5348 -3.28382,6.72401 -6.81784,12.72871 -13.63567,25.42615 -20.54733,38.09231 -2.53323,4.65989 -6.44254,7.2244 -11.94685,7.2244 -68.39727,-0.0313 -136.79455,-0.0313 -205.19182,-0.0313 -3.72167,0 -6.22362,-1.53245 -7.22441,-4.56608 -0.21892,-0.68803 -0.28147,-1.4699 -0.28147,-2.18921 -0.0313,-14.41753 0,-28.83506 0,-43.2526 0,-3.78421 1.90775,-6.56764 5.50431,-7.97499 0.1251,-0.0313 0.18765,-0.15637 0.28147,-0.25019 80.09393,0 160.18786,0 240.31306,0 z"
   style="stroke-width:0.31274474;fill:#27292b;fill-opacity:1" /><path
   id="XMLID_8_"
   d="m 305.91688,523.9694 c -39.12437,0 -78.24873,-0.0625 -117.3731,0.0626 -5.31666,0.0313 -8.60048,-3.87803 -8.60048,-8.41283 -0.0625,-14.32371 -0.0625,-28.64742 0,-43.0024 0,-4.19078 2.90853,-6.88039 7.19313,-6.88039 8.22519,0 16.45037,0 24.67556,0 60.32846,0 120.62564,0 180.95411,-0.0313 5.44175,0 9.35106,2.47068 11.8843,7.09931 6.00469,11.00861 11.94684,22.07977 17.88899,33.11966 1.81392,3.34637 3.69039,6.69274 5.34794,10.13293 0.62549,1.28226 0.87568,2.84598 0.96951,4.28461 0.1251,2.00156 -1.40735,3.47146 -3.40892,3.59656 -0.43784,0.0313 -0.87568,0 -1.31353,0 -39.43711,0.0313 -78.81167,0.0313 -118.21751,0.0313 z"
   style="stroke-width:0.31274474;fill:#27292b;fill-opacity:1" /><path
   id="XMLID_7_"
   d="m 246.88481,421.17021 c -20.14076,0 -40.28152,0 -60.42228,0 -4.09696,0 -6.19235,-1.90774 -6.56764,-6.0047 -0.0313,-0.34402 -0.0313,-0.68804 -0.0313,-1.06333 0,-14.69901 0,-29.36673 0,-44.06574 0,-1.84519 0.46912,-3.56529 1.50118,-5.09774 0.90696,-1.31352 2.09539,-2.00156 3.75294,-2.00156 41.18848,0.0313 82.37696,0.0313 123.59672,0 2.03284,0 3.47146,0.84441 4.22205,2.5645 0.62549,1.40736 1.15716,3.00235 1.15716,4.5348 0.0938,14.69901 0.0625,29.36673 0,44.06574 0,1.3448 -0.40657,2.78343 -0.90696,4.06568 -0.81314,2.03284 -2.34559,3.0649 -4.72245,3.03362 -20.51605,-0.0625 -41.03211,-0.0313 -61.57944,-0.0313 z"
   style="stroke-width:0.31274474;fill:#27292b;fill-opacity:1" />
<g
   class="st0"
   id="g28"
   transform="translate(12)"
   style="enable-background:new;fill:#27292b;fill-opacity:1">
	<path
   style="fill:#27292b;fill-opacity:1"
   d="m -67.2,647.1 c -0.8,0 -1.4,-0.3 -2,-0.8 -0.6,-0.5 -0.8,-1.2 -0.8,-2 v -61.7 c 0,-0.8 0.3,-1.4 0.8,-2 0.6,-0.6 1.2,-0.9 2,-0.8 l 37.2,0.1 c 0.8,0 1.4,0.3 2,0.8 0.6,0.6 0.8,1.2 0.8,2 0,0.8 -0.3,1.5 -0.8,2 -0.5,0.5 -1.2,0.8 -2,0.8 l -34.4,-0.1 v 25.2 h 25.7 c 0.8,0 1.4,0.3 2,0.8 0.6,0.5 0.8,1.2 0.8,2 0,0.8 -0.3,1.4 -0.8,2 -0.5,0.6 -1.2,0.8 -2,0.8 h -25.7 v 25.2 H -30 c 0.8,0 1.4,0.3 2,0.8 0.6,0.5 0.8,1.2 0.8,2 0,0.8 -0.3,1.4 -0.8,2 -0.5,0.6 -1.2,0.8 -2,0.8 h -37.2 z"
   id="path10" />
	<path
   style="fill:#27292b;fill-opacity:1"
   d="m 53.3,646.1 v 0 0 l -43,-55.4 v 53.5 c 0,0.8 -0.3,1.4 -0.8,2 -0.5,0.6 -1.2,0.8 -2,0.8 -0.8,0 -1.4,-0.3 -2,-0.8 -0.6,-0.5 -0.8,-1.2 -0.8,-2 v -61.7 c 0,-1.3 0.6,-2.2 1.9,-2.7 1.3,-0.4 2.3,-0.1 3.1,0.9 L 52.6,636 v -53.5 c 0,-0.8 0.3,-1.4 0.8,-2 0.6,-0.6 1.2,-0.8 2,-0.8 0.8,0 1.5,0.3 2,0.8 0.5,0.5 0.8,1.2 0.8,2 v 61.7 c 0,-0.1 0,0 0,0.2 0,0.1 0,0.2 0,0.3 0,0.1 0,0.1 0,0.2 0,0.1 -0.1,0.2 -0.1,0.3 0,0.1 -0.1,0.1 -0.1,0.2 0,0.1 -0.1,0.2 -0.1,0.2 0,0.1 -0.1,0.1 -0.1,0.2 -0.1,0.1 -0.1,0.2 -0.2,0.2 0,0 -0.1,0.1 -0.2,0.2 -0.2,0.1 -0.2,0.2 -0.1,0.1 0.1,0 0,0 -0.1,0.1 0,0 -0.1,0.1 -0.1,0.1 -0.1,0.1 -0.2,0.1 -0.3,0.1 -0.1,0 -0.1,0.1 -0.2,0.1 -0.1,0 -0.2,0.1 -0.3,0.1 -0.1,0 -0.2,0 -0.2,0 -0.2,0 -0.4,0 -0.5,0 -0.2,0 -0.4,0 -0.6,0 h -0.2 c -0.2,-0.1 -0.3,-0.1 -0.4,-0.1 0,0 -0.1,-0.1 -0.2,-0.1 -0.1,-0.1 -0.2,-0.1 -0.3,-0.2 0,0 -0.1,-0.1 -0.2,-0.1 -0.1,-0.1 -0.1,-0.1 -0.1,-0.1 0,0 -0.3,0 -0.3,-0.1 z"
   id="path12" />
	<path
   style="fill:#27292b;fill-opacity:1"
   d="M 112,585.4 H 93.5 c -0.8,0 -1.5,-0.3 -2,-0.8 -0.5,-0.5 -0.8,-1.2 -0.8,-2 0,-0.8 0.3,-1.4 0.8,-2 0.6,-0.6 1.2,-0.8 2,-0.8 h 42.6 c 0.8,0 1.4,0.3 2,0.8 0.6,0.5 0.8,1.2 0.8,2 0,0.8 -0.3,1.4 -0.8,2 -0.5,0.5 -1.2,0.8 -2,0.8 h -18.5 v 58.8 c 0,0.8 -0.3,1.5 -0.8,2 -0.6,0.5 -1.2,0.8 -2,0.8 -0.8,0 -1.4,-0.3 -2,-0.8 -0.5,-0.6 -0.8,-1.2 -0.8,-2 z"
   id="path14" />
	<path
   style="fill:#27292b;fill-opacity:1"
   d="m 194.8,580 c 5.4,0 10,1.8 13.9,5.3 3.8,3.5 5.7,7.8 5.7,12.8 0,4.4 -1.6,8.3 -4.7,11.7 -3.1,3.3 -6.9,5.4 -11.6,6.1 l 13.4,27.2 c 0.3,0.7 0.4,1.4 0.1,2.1 -0.3,0.7 -0.7,1.3 -1.4,1.6 -0.4,0.2 -0.8,0.3 -1.2,0.3 -1.2,0 -2,-0.5 -2.5,-1.5 L 192,616.2 h -15.7 v 27.7 c 0,0.8 -0.3,1.4 -0.8,2 -0.5,0.5 -1.2,0.8 -2,0.8 -0.8,0 -1.4,-0.3 -2,-0.8 -0.5,-0.6 -0.8,-1.2 -0.8,-2 v -61.1 c 0,-0.8 0.3,-1.4 0.8,-2 0.6,-0.5 1.2,-0.8 2,-0.8 z m 14.1,18.1 c 0,-3.5 -1.4,-6.4 -4.1,-8.9 -2.8,-2.5 -6.1,-3.7 -9.9,-3.7 h -18.4 v 25.1 h 18.8 c 3.8,-0.1 7,-1.3 9.7,-3.8 2.5,-2.4 3.9,-5.3 3.9,-8.7 z"
   id="path16" />
	<path
   style="fill:#27292b;fill-opacity:1"
   d="m 278.2,647.1 c -9.3,0 -17.2,-3.3 -23.8,-9.8 -6.6,-6.5 -9.8,-14.5 -9.8,-23.8 0,-9.3 3.3,-17.2 9.8,-23.8 6.5,-6.6 14.5,-9.8 23.8,-9.8 9.3,0 17.2,3.3 23.8,9.8 6.6,6.5 9.8,14.5 9.8,23.8 0,9.3 -3.3,17.2 -9.8,23.8 -6.5,6.6 -14.5,9.8 -23.8,9.8 z m 0,-61.7 c -7.7,0 -14.3,2.8 -19.8,8.3 -5.5,5.5 -8.2,12.1 -8.2,19.8 0,7.7 2.7,14.3 8.2,19.8 5.5,5.5 12.1,8.2 19.8,8.2 7.7,0 14.3,-2.7 19.8,-8.2 5.5,-5.5 8.3,-12.1 8.3,-19.8 0,-7.7 -2.8,-14.3 -8.3,-19.8 -5.5,-5.5 -12.1,-8.3 -19.8,-8.3 z"
   id="path18" />
	<path
   style="fill:#27292b;fill-opacity:1"
   d="m 425.6,579.9 c 0.8,0.3 1.3,0.7 1.6,1.5 0.3,0.7 0.3,1.4 0.1,2.2 l -21.7,61.7 c 0,0 0,0 -0.1,0.2 0,0.1 0,0.1 0,0.1 -0.1,0.1 -0.1,0.2 -0.2,0.3 v 0 0 c -0.1,0.1 -0.2,0.3 -0.3,0.4 0,0 0,0 -0.1,0.1 -0.1,0.1 -0.2,0.1 -0.3,0.2 0,0 -0.1,0.1 -0.1,0.1 -0.1,0.1 -0.2,0.1 -0.3,0.2 v 0 c 0,0 0,0 0,0 0,0 0,0 0,0 -0.1,0 -0.2,0.1 -0.3,0.1 -0.1,0 -0.2,0 -0.1,0 -0.2,0 -0.3,0 -0.5,0 -0.1,0 -0.3,0 -0.4,0 0,0 0,0 -0.1,0 -0.1,0 -0.2,-0.1 -0.3,-0.1 0,0 0,0 0,0 0,0 0,0 0,0 -0.2,-0.1 -0.3,-0.1 -0.4,-0.2 -0.1,0 -0.1,-0.1 -0.1,-0.1 -0.1,-0.1 -0.2,-0.1 -0.3,-0.2 -0.1,-0.1 -0.1,-0.1 -0.1,-0.1 -0.1,-0.1 -0.3,-0.3 -0.4,-0.4 v 0 c 0,0 0,0 0,0 -0.1,-0.1 -0.1,-0.2 -0.2,-0.3 0,0 0,-0.1 -0.1,-0.1 0,-0.2 0,-0.2 0,-0.2 l -19,-54.2 -19,54.2 c 0,0 0,0 -0.1,0.2 0,0.1 0,0.1 0,0.1 -0.1,0.1 -0.1,0.2 -0.2,0.3 v 0 0 c -0.1,0.1 -0.2,0.3 -0.3,0.4 0,0 0,0 -0.1,0.1 -0.1,0.1 -0.2,0.1 -0.3,0.2 -0.1,0 -0.1,0.1 -0.1,0.1 -0.1,0.1 -0.3,0.1 -0.4,0.2 v 0 0 c 0,0 0,0 0,0 0,0 -0.2,0.1 -0.3,0.1 -0.1,0 -0.2,0 -0.1,0 -0.2,0 -0.3,0 -0.5,0 -0.1,0 -0.3,0 -0.4,0 0,0 0,0 -0.1,0 -0.1,0 -0.2,-0.1 -0.3,-0.1 0,0 0,0 0,0 v 0 0 c -0.1,-0.1 -0.3,-0.1 -0.4,-0.2 -0.1,0 -0.1,-0.1 -0.1,-0.1 -0.1,-0.1 -0.2,-0.1 -0.3,-0.2 -0.1,-0.1 -0.1,-0.1 -0.1,-0.1 -0.1,-0.1 -0.2,-0.3 -0.3,-0.4 0,0 0,0 0,0 v 0 c -0.1,-0.1 -0.1,-0.2 -0.2,-0.3 0,0 0,-0.1 0,-0.1 -0.1,-0.2 -0.1,-0.2 -0.1,-0.2 l -21.7,-61.7 c -0.3,-0.8 -0.3,-1.5 0.1,-2.2 0.3,-0.7 0.9,-1.2 1.6,-1.5 0.8,-0.3 1.5,-0.2 2.2,0.1 0.7,0.3 1.2,0.9 1.5,1.6 l 19,54.2 19,-54.2 c 0,0.1 0,0 0.1,-0.1 0,-0.1 0.1,-0.2 0.1,-0.3 0.1,-0.1 0.1,-0.1 0.1,-0.2 0.1,-0.1 0.1,-0.2 0.2,-0.2 0.1,-0.1 0.1,-0.2 0.2,-0.2 0.1,-0.1 0.1,-0.1 0.2,-0.2 0.1,-0.1 0.1,-0.1 0.2,-0.2 0.1,-0.1 0.2,-0.1 0.3,-0.1 0.1,0 0.1,-0.1 0.2,-0.1 0.2,-0.1 0.3,-0.1 0.1,-0.1 -0.1,0 0,0 0.1,0 0.1,0 0.2,-0.1 0.3,-0.1 0.1,0 0.2,0 0.3,0 0.1,0 0.2,0 0.3,0 0.1,0 0.2,0 0.3,0 0,0 0.1,0 0.2,0 0.1,0 0.2,0.1 0.3,0.1 0.1,0 0.2,0 0.1,0 v 0 c 0,0 0.1,0 0.1,0 0.1,0 0.2,0.1 0.2,0.1 0.1,0.1 0.2,0.1 0.2,0.1 0.1,0.1 0.1,0.1 0.2,0.2 0.1,0.1 0.1,0.1 0.2,0.2 0.1,0.1 0.1,0.1 0.2,0.2 0.1,0.1 0.1,0.1 0.1,0.2 0.1,0.1 0.1,0.1 0.1,0.2 0.1,0.1 0.1,0.2 0.1,0.3 0.1,0.2 0.1,0.2 0,0.1 l 19,54.2 19,-54.2 c 0.3,-0.7 0.7,-1.3 1.5,-1.6 0.7,-0.3 1,-0.5 1,-0.5 0,0 -0.5,0.2 0.2,0.5 z"
   id="path20" />
	<path
   style="fill:#27292b;fill-opacity:1"
   d="m 448.3,646.9 c -0.7,-0.3 -1.2,-0.8 -1.5,-1.5 -0.3,-0.7 -0.3,-1.4 0,-2.2 l 6.5,-15.7 v 0 l 19,-45.8 c 0.1,-0.2 0.1,-0.3 0.2,-0.5 l 0.2,-0.2 c 0.1,-0.1 0.2,-0.2 0.2,-0.2 0,0 0.1,-0.1 0.2,-0.2 0.2,-0.1 0.2,-0.2 0.2,-0.1 0.3,-0.2 0.6,-0.4 1,-0.4 h 0.2 c 0.2,0 0.3,0 0.3,0 0,0 0.1,0 0.3,0 0.2,0 0.3,0 0.2,0 0.4,0.1 0.7,0.2 1,0.4 l 0.2,0.1 c 0.1,0.1 0.2,0.2 0.2,0.2 0,0 0.1,0.1 0.2,0.2 0.1,0.2 0.2,0.2 0.2,0.2 0.1,0.2 0.2,0.4 0.2,0.5 l 19,45.8 v 0 l 6.5,15.7 c 0.3,0.7 0.3,1.4 0,2.2 -0.3,0.7 -0.8,1.2 -1.5,1.5 -0.3,0.2 -0.7,0.2 -1.1,0.2 -1.3,0 -2.1,-0.6 -2.6,-1.7 l -5.8,-14 h -34.2 l -5.8,14 c -0.5,1.2 -1.3,1.7 -2.6,1.7 -0.4,0 -0.6,0 -0.6,0 0,0 0,-0.1 -0.3,-0.2 z M 489.7,625.8 474.9,590 460,625.8 Z"
   id="path22" />
	<path
   style="fill:#27292b;fill-opacity:1"
   d="m 560.3,580 c 5.4,0 10,1.8 13.9,5.3 3.8,3.5 5.7,7.8 5.7,12.8 0,4.4 -1.6,8.3 -4.7,11.7 -3.1,3.3 -6.9,5.4 -11.6,6.1 l 13.4,27.2 c 0.3,0.7 0.4,1.4 0.1,2.1 -0.3,0.7 -0.7,1.3 -1.4,1.6 -0.4,0.2 -0.8,0.3 -1.2,0.3 -1.2,0 -2,-0.5 -2.5,-1.5 l -14.5,-29.4 h -15.7 v 27.7 c 0,0.8 -0.3,1.4 -0.8,2 -0.5,0.5 -1.2,0.8 -2,0.8 -0.8,0 -1.4,-0.3 -2,-0.8 -0.5,-0.6 -0.8,-1.2 -0.8,-2 v -61.1 c 0,-0.8 0.3,-1.4 0.8,-2 0.6,-0.5 1.2,-0.8 2,-0.8 z m 14,18.1 c 0,-3.5 -1.4,-6.4 -4.1,-8.9 -2.8,-2.5 -6.1,-3.7 -9.9,-3.7 h -18.4 v 25.1 h 18.8 c 3.8,-0.1 7,-1.3 9.7,-3.8 2.6,-2.4 3.9,-5.3 3.9,-8.7 z"
   id="path24" />
	<path
   style="fill:#27292b;fill-opacity:1"
   d="m 615.7,647.1 c -0.8,0 -1.4,-0.3 -2,-0.8 -0.6,-0.5 -0.8,-1.2 -0.8,-2 v -61.7 c 0,-0.8 0.3,-1.4 0.8,-2 0.6,-0.6 1.2,-0.9 2,-0.8 l 37.2,0.1 c 0.8,0 1.4,0.3 2,0.8 0.6,0.6 0.8,1.2 0.8,2 0,0.8 -0.3,1.5 -0.8,2 -0.5,0.5 -1.2,0.8 -2,0.8 l -34.4,-0.1 v 25.2 h 25.7 c 0.8,0 1.4,0.3 2,0.8 0.6,0.5 0.8,1.2 0.8,2 0,0.8 -0.3,1.4 -0.8,2 -0.5,0.6 -1.2,0.8 -2,0.8 h -25.7 v 25.2 h 34.4 c 0.8,0 1.4,0.3 2,0.8 0.6,0.5 0.8,1.2 0.8,2 0,0.8 -0.3,1.4 -0.8,2 -0.5,0.6 -1.2,0.8 -2,0.8 h -37.2 z"
   id="path26" />
</g>
</svg>