<?xml version="1.0" encoding="UTF-8" standalone="no"?>
<!-- Created with Inkscape (http://www.inkscape.org/) -->

<svg
   xmlns:dc="http://purl.org/dc/elements/1.1/"
   xmlns:cc="http://creativecommons.org/ns#"
   xmlns:rdf="http://www.w3.org/1999/02/22-rdf-syntax-ns#"
   xmlns:svg="http://www.w3.org/2000/svg"
   xmlns="http://www.w3.org/2000/svg"
   xmlns:sodipodi="http://sodipodi.sourceforge.net/DTD/sodipodi-0.dtd"
   xmlns:inkscape="http://www.inkscape.org/namespaces/inkscape"
   id="svg2"
   version="1.1"
   inkscape:version="0.91 r13725"
   xml:space="preserve"
   width="530.82501"
   height="196.8125"
   viewBox="0 0 530.82501 196.8125"
   sodipodi:docname="IBM_logo_rev_blue50_RGB.eps"><metadata
     id="metadata8"><rdf:RDF><cc:Work
         rdf:about=""><dc:format>image/svg+xml</dc:format><dc:type
           rdf:resource="http://purl.org/dc/dcmitype/StillImage" /><dc:title></dc:title></cc:Work></rdf:RDF></metadata><defs
     id="defs6" /><sodipodi:namedview
     pagecolor="#ffffff"
     bordercolor="#666666"
     borderopacity="1"
     objecttolerance="10"
     gridtolerance="10"
     guidetolerance="10"
     inkscape:pageopacity="0"
     inkscape:pageshadow="2"
     inkscape:window-width="640"
     inkscape:window-height="480"
     id="namedview4"
     showgrid="false"
     inkscape:zoom="0.60095134"
     inkscape:cx="265.41251"
     inkscape:cy="98.40625"
     inkscape:window-x="1684"
     inkscape:window-y="142"
     inkscape:window-maximized="0"
     inkscape:current-layer="g10" /><g
     id="g10"
     inkscape:groupmode="layer"
     inkscape:label="ink_ext_XXXXXX"
     transform="matrix(1.25,0,0,-1.25,0,196.8125)"><g
       id="g12"
       transform="scale(0.1,0.1)"><path
         d="m 3073.25,844.488 -34.7,100 -618.55,0 0,-100 330,0 0,94.91 33.62,-94.91 289.63,0 z M 2820,1574.49 l -620,0 0,-100 654.7,0 -34.7,100 z m 72.85,-210 -692.85,0 0,-100 727.55,0 -34.7,100 z m 339.61,-100 727.54,0 0,100 -692.85,0 -34.69,-100 z m -812.46,-210 580.4,0 -34.7,100 -545.7,0 0,-100 z m 437.76,-420.002 444.47,0 35.31,100 -515.08,0 35.3,-100 z m 74.14,-210 296.19,0 35.31,100 -366.8,0 35.3,-100 z m 74.15,-210 147.9,0 35.31,100 -218.52,0 35.31,-100 z M 3080,5.03906 l 35.12,99.44894 -70.24,0 L 3080,5.03906 Z m 260,1569.45094 -34.69,-100 654.69,0 0,100 -620,0 z m 400,-420 -545.71,0 -34.69,-100 580.4,0 0,100 z m -330,-310.002 330,0 0,100 -618.56,0 -34.69,-100 289.62,0 33.63,95.235 0,-95.235 z m 330,-110 -330,0 0,-100 330,0 0,100 z m -330,-310 330,0 0,100 -330,0 0,-100 z m 0,-210 550,0 0,100 -550,0 0,-100 z m 0,-209.99972 550,0 0,99.99972 -550,0 0,-99.99972 z m -990,629.99972 330,0 0,100 -330,0 0,-100 z m 0,-210 330,0 0,100 -330,0 0,-100 z m -220,-210 550,0 0,100 -550,0 0,-100 z m 0,-209.99972 550,0 0,99.99972 -550,0 0,-99.99972 z M 1961.88,1474.49 c -73.27,62.32 -168.15,100 -271.88,100 l 0,0 -809.996,0 0,0 0,-100 0,0 1081.876,0 z m 11.03,-740.002 -872.91,0 0,0 0,-100 953.61,0 c -21.67,37.395 -48.98,71.051 -80.7,100 z m -232.91,-210 0,-100 370,0 0,0 c 0,34.5 -4.38,67.934 -12.23,100 l -357.77,0 z m 0,530.002 357.77,0 c 7.85,32.07 12.23,65.5 12.23,100 l -370,0 0,-100 z m -640,100 0,-100 330,0 0,100 -330,0 0,0 z m 995.35,110 c -9.59,35.42 -23.71,68.95 -41.68,100 l -1173.666,0 0,0 0,-100 0,0 1215.346,0 z M 1100,944.488 l 0,0 0,-100 872.91,0 c 31.72,28.953 59.03,62.61 80.7,100 l -953.61,0 z m 0,-420 0,-100 330,0 0,100 -330,0 0,0 z m -219.996,-210 0,-100 1173.666,0 c 17.97,31.051 32.09,64.582 41.68,100 l -1215.346,0 0,0 z m 0,-210 0,-99.99972 809.996,0 0,0 c 103.73,0 198.61,37.69142 271.88,99.99972 l -1081.876,0 0,0 z M -0.00390625,1474.49 770,1474.49 l 0,100 -770.00390625,0 0,-100 z m 0,-210 770.00390625,0 0,100 -770.00390625,0 0,-100 z M 550,1154.49 l -330.004,0 0,-100 330.004,0 0,100 z m -330.004,-310.002 330.004,0 0,100 -330.004,0 0,-100 z m 0,-210 330.004,0 0,100 -330.004,0 0,-100 z m 0,-210 330.004,0 0,100 -330.004,0 0,-100 z m -219.99990625,-210 770.00390625,0 0,100 -770.00390625,0 0,-100 z m 0,-110 770.00390625,0 0,-99.99972 -770.00390625,0 0,99.99972 z M 4165.9,88.2188 c 6.72,0 10.49,2.9414 10.49,9.2421 l 0,6.3011 c 0,6.297 -3.77,9.238 -10.49,9.238 l -15.97,0 0,-24.7812 15.97,0 z m -15.97,-46.2071 -21.43,0 0,87.7893 39.92,0 c 19.74,0 29.82,-11.762 29.82,-27.719 0,-13.8632 -6.3,-22.6914 -15.97,-26.4726 l 19.75,-33.5977 -23.53,0 -16.37,30.2383 -12.19,0 0,-30.2383 z m 76.87,39.0586 0,10.9297 c 0,35.281 -27.72,63.012 -64.26,63.012 -36.56,0 -64.28,-27.731 -64.28,-63.012 l 0,-10.9297 c 0,-35.2812 27.72,-63.0117 64.28,-63.0117 36.54,0 64.26,27.7305 64.26,63.0117 z m -148.28,5.4688 c 0,49.1409 37.39,86.5309 84.02,86.5309 46.62,0 84.01,-37.39 84.01,-86.5309 C 4246.55,37.3906 4209.16,0 4162.54,0 c -46.63,0 -84.02,37.3906 -84.02,86.5391"
         style="fill:#5b7ec8;fill-opacity:1;fill-rule:nonzero;stroke:none"
         id="path14"
         inkscape:connector-curvature="0" /></g></g></svg>