<?xml version="1.0" encoding="UTF-8" standalone="no"?>
<!-- Created with Inkscape (http://www.inkscape.org/) -->

<svg
   xmlns:dc="http://purl.org/dc/elements/1.1/"
   xmlns:cc="http://creativecommons.org/ns#"
   xmlns:rdf="http://www.w3.org/1999/02/22-rdf-syntax-ns#"
   xmlns:svg="http://www.w3.org/2000/svg"
   xmlns="http://www.w3.org/2000/svg"
   xmlns:sodipodi="http://sodipodi.sourceforge.net/DTD/sodipodi-0.dtd"
   xmlns:inkscape="http://www.inkscape.org/namespaces/inkscape"
   id="svg2"
   xml:space="preserve"
   height="220"
   viewBox="0 0 340 220"
   width="340"
   version="1.1"
   inkscape:version="0.91 r13725"
   sodipodi:docname="SUSE-official-logo-black.svg"><sodipodi:namedview
     pagecolor="#ffffff"
     bordercolor="#666666"
     borderopacity="1"
     objecttolerance="10"
     gridtolerance="10"
     guidetolerance="10"
     inkscape:pageopacity="0"
     inkscape:pageshadow="2"
     inkscape:window-width="1366"
     inkscape:window-height="650"
     id="namedview32"
     showgrid="false"
     inkscape:zoom="0.58"
     inkscape:cx="43.103448"
     inkscape:cy="187.5"
     inkscape:window-x="0"
     inkscape:window-y="30"
     inkscape:window-maximized="1"
     inkscape:current-layer="svg2" /><metadata
     id="metadata8"><rdf:RDF><cc:Work
         rdf:about=""><dc:format>image/svg+xml</dc:format><dc:type
           rdf:resource="http://purl.org/dc/dcmitype/StillImage" /><dc:title></dc:title></cc:Work></rdf:RDF></metadata><defs
     id="defs6"><clipPath
       id="clipPath16"
       clipPathUnits="userSpaceOnUse"><path
         id="path18"
         d="m 0,595.28 841.89,0 L 841.89,0 0,0 0,595.28 Z"
         inkscape:connector-curvature="0" /></clipPath></defs><g
     id="g10"
     transform="matrix(1.25,0,0,-1.25,-363.56966,481.33207)"
     style="fill:#333333"><g
       id="g12"
       style="fill:#333333"><g
         id="g14"
         clip-path="url(#clipPath16)"
         style="fill:#333333"><g
           id="g20"
           transform="translate(513.92,340.68)"
           style="fill:#333333"><path
             id="path22"
             d="M 0,0 C 2.431,0 4.403,1.315 4.403,2.93 4.403,4.553 2.431,5.868 0,5.868 -2.431,5.868 -4.396,4.553 -4.396,2.93 -4.396,1.315 -2.431,0 0,0 m -2.298,-8.982 c -5.461,0.2 -9.747,4.803 -9.564,10.272 0.084,2.647 1.216,5.094 3.138,6.901 1.932,1.807 4.453,2.747 7.101,2.647 C 3.846,10.646 8.133,6.051 7.949,0.574 7.866,-2.065 6.75,-4.512 4.819,-6.327 2.88,-8.125 0.357,-9.065 -2.298,-8.982"
             inkscape:connector-curvature="0"
             style="fill:#333333" /></g><g
           id="g24"
           transform="translate(497.65,341.95)"
           style="fill:#333333"><path
             id="path26"
             d="m 0,0 c 0.131,3.724 1.691,7.178 4.418,9.709 2.719,2.548 6.271,3.862 9.995,3.74 7.691,-0.278 13.718,-6.753 13.456,-14.437 -0.139,-3.715 -1.699,-7.161 -4.418,-9.7 -2.719,-2.548 -6.262,-3.863 -10.002,-3.741 C 5.774,-14.143 -0.252,-7.675 0,0 m 37.26,-13.726 c 0.628,0.424 1.102,0.768 1.298,0.841 l 0.205,0.335 c -0.533,3.372 -5.554,19.703 -9.342,23.623 -1.054,1.078 -1.895,2.122 -3.594,3.119 -13.725,8.002 -46.314,12.837 -47.841,13.057 l -0.261,-0.074 -0.098,-0.228 c 0,0 -0.123,-6.761 -0.14,-7.513 -3.332,1.11 -27.525,8.925 -50.21,9.717 -19.229,0.678 -45.499,1.593 -82.619,-21.222 l -1.095,-0.686 c -17.458,-10.892 -29.51,-24.317 -35.813,-39.93 -1.977,-4.907 -4.639,-15.988 -2.01,-26.415 1.144,-4.565 3.259,-9.138 6.117,-13.237 6.443,-9.259 17.262,-15.41 28.914,-16.446 16.446,-1.469 28.907,5.92 33.34,19.753 3.045,9.545 0,23.55 -11.676,30.695 -9.498,5.822 -19.721,4.491 -25.641,0.579 -5.144,-3.412 -8.059,-8.703 -8.002,-14.526 0.114,-10.313 9.007,-15.8 15.393,-15.808 1.861,0 3.722,0.318 5.83,1.004 0.743,0.228 1.453,0.505 2.228,0.988 l 0.237,0.154 0.156,0.09 -0.058,-0.024 c 1.462,0.98 2.344,2.596 2.344,4.328 0,0.473 -0.073,0.955 -0.204,1.436 -0.751,2.606 -3.332,4.19 -6.01,3.699 l -0.359,-0.073 -0.491,-0.163 -0.71,-0.236 c -1.469,-0.368 -2.581,-0.393 -2.809,-0.401 -0.751,0.049 -4.434,1.151 -4.434,5.185 l 0,0.049 c 0.009,1.478 0.605,2.515 0.931,3.079 1.135,1.797 4.27,3.56 8.509,3.184 5.552,-0.473 9.553,-3.323 12.207,-8.696 2.467,-4.998 1.821,-11.138 -1.657,-15.645 -3.455,-4.468 -9.603,-6.362 -17.785,-5.471 -8.248,0.905 -15.22,5.65 -19.124,13.04 -3.821,7.219 -4.034,15.785 -0.547,22.365 8.354,15.76 24.121,15.597 32.769,14.103 12.804,-2.213 24.423,-12.461 29.592,-26.089 0.825,-2.173 1.249,-3.896 1.616,-5.463 l 0.556,-2.36 14.461,-7.064 0.196,-0.138 10e-4,0 0.35,0.033 0.058,0.416 c -0.09,0.327 -0.302,0.621 -0.63,4.672 -0.277,3.584 -0.841,13.415 4.108,18.29 1.919,1.903 4.85,3.593 7.162,4.14 9.479,2.311 21.785,0.71 32.294,-11.44 5.423,-6.279 8.085,-9.146 9.416,-10.428 l 0.456,-0.424 0.555,-0.4 c 0.433,-0.245 18.063,-8.361 18.063,-8.361 l 0.358,0.089 0.009,0.383 c -0.113,0.131 -11.17,14.413 -9.211,26.179 1.552,9.374 9.015,8.533 19.328,7.358 3.373,-0.384 7.211,-0.825 11.18,-0.915 11.079,-0.065 23.019,1.968 30.376,5.185 4.76,2.082 7.798,3.455 9.7,5.185 0.686,0.564 1.044,1.495 1.412,2.475 l 0.254,0.661 c 0.31,0.792 0.759,2.49 0.955,3.413 0.091,0.408 0.131,0.85 -0.155,1.07 l -1.021,-0.188 c -3.225,-1.935 -11.301,-5.626 -18.862,-5.773 -9.366,-0.196 -28.244,9.424 -30.213,10.444 l -0.187,0.22 c -0.475,1.128 -3.308,7.831 -3.904,9.243 13.588,-8.948 24.856,-13.898 33.487,-14.665 9.603,-0.857 17.092,4.385 20.292,6.623"
             inkscape:connector-curvature="0"
             style="fill:#333333" /></g><g
           id="g28"
           transform="translate(542.28,255.7)"
           style="fill:#333333"><path
             id="path30"
             d="m 0,0 -0.162,0 c -0.187,0 -0.349,0.162 -0.349,0.35 l 0,2.5 -0.547,-0.833 C -1.12,1.93 -1.232,1.893 -1.332,1.893 l -0.063,0 c -0.098,0 -0.21,0.037 -0.273,0.124 l -0.56,0.833 0,-2.5 C -2.228,0.162 -2.39,0 -2.589,0 L -2.75,0 c -0.188,0 -0.349,0.162 -0.349,0.35 l 0,2.986 -1.68,0 0,-2.986 C -4.779,0.162 -4.953,0 -5.152,0 l -0.15,0 C -5.488,0 -5.65,0.162 -5.65,0.35 l 0,2.986 -1.257,0 c -0.187,0 -0.336,0.125 -0.336,0.323 l 0,0.175 c 0,0.199 0.149,0.323 0.336,0.323 l 4.405,0 c 0.175,0 0.286,-0.061 0.349,-0.162 l 0.834,-1.257 0.834,1.257 c 0.062,0.087 0.162,0.162 0.348,0.162 l 0.56,0 0,-3.833 c 0,-0.186 -0.174,-0.348 -0.373,-0.348"
             inkscape:connector-curvature="0"
             style="fill:#333333" /></g><g
           id="g32"
           transform="translate(398.23,260.94)"
           style="fill:#333333"><path
             id="path34"
             d="m 0,0 c -6.023,0 -9.359,-5.103 -9.359,-8.637 l 0,-4.531 c 0,-5.189 4.244,-8.412 8.189,-8.412 l 13.814,0 c 1.73,0 2.091,-1.133 2.091,-2.091 l 0,-2.925 c 0,-0.31 -0.049,-3.124 -2.091,-3.124 l -18.854,0 c -1.867,0 -3.224,-1.294 -3.224,-3.073 l 0,-0.81 c 0,-1.766 1.344,-3.074 3.224,-3.074 l 19.887,0 c 5.19,0 8.551,3.61 8.551,9.21 l 0,4.891 c 0,5.252 -3.785,7.603 -7.531,7.603 l -13.59,0 c -2.053,0 -2.974,1.52 -2.974,2.615 l 0,2.688 c 0,1.705 1.133,2.676 3.124,2.676 l 15.058,0 c 1.842,0 3.224,1.318 3.224,3.074 l 0,0.809 c 0,1.742 -1.406,3.074 -3.286,3.074 l -16.229,0"
             inkscape:connector-curvature="0"
             style="fill:#333333" /></g><g
           id="g36"
           transform="translate(454.77,260.94)"
           style="fill:#333333"><path
             id="path38"
             d="m 0,0 c -1.78,0 -3.224,-1.443 -3.224,-3.224 l 0,-23.148 c 0,-1.842 -1.505,-3.335 -3.335,-3.335 l -10.504,0 c -1.842,0 -3.335,1.493 -3.335,3.335 l 0,23.148 c 0,1.781 -1.431,3.224 -3.224,3.224 l -1.021,0 c -1.792,0 -3.222,-1.419 -3.222,-3.224 l 0,-24.032 c 0,-5.588 4.392,-9.644 10.454,-9.644 l 11.225,0 c 6.061,0 10.455,4.056 10.455,9.644 l 0,24.032 C 4.269,-1.419 2.85,0 1.045,0 L 0.024,0"
             inkscape:connector-curvature="0"
             style="fill:#333333" /></g><g
           id="g40"
           transform="translate(474.89,260.94)"
           style="fill:#333333"><path
             id="path42"
             d="m 0,0 c -6.023,0 -9.359,-5.103 -9.359,-8.637 l 0,-4.531 c 0,-5.189 4.255,-8.412 8.189,-8.412 l 13.814,0 c 1.73,0 2.103,-1.133 2.103,-2.091 l 0,-2.925 c 0,-0.31 -0.061,-3.124 -2.103,-3.124 l -18.855,0 c -1.866,0 -3.223,-1.294 -3.223,-3.073 l 0,-0.81 c 0,-1.766 1.357,-3.074 3.223,-3.074 l 19.876,0 c 5.202,0 8.549,3.61 8.549,9.21 l 0,4.891 c 0,5.252 -3.771,7.603 -7.528,7.603 l -13.591,0 c -2.054,0 -2.975,1.52 -2.975,2.615 l 0,2.688 c 0,1.705 1.133,2.676 3.111,2.676 l 15.059,0 c 1.83,0 3.224,1.318 3.224,3.074 l 0,0.809 c 0,1.742 -1.407,3.074 -3.298,3.074 L 0,-0.037"
             inkscape:connector-curvature="0"
             style="fill:#333333" /></g><g
           id="g44"
           transform="translate(506.66,260.94)"
           style="fill:#333333"><path
             id="path46"
             d="m 0,0 c -1.779,0 -3.148,-1.319 -3.148,-3.074 l 0,-30.529 c 0,-1.742 1.318,-3.074 3.085,-3.074 l 24.331,0 c 1.867,0 3.223,1.294 3.223,3.074 l 0,0.81 c 0,1.767 -1.344,3.073 -3.223,3.073 l -19.925,0 0,7.779 14.598,0 c 1.868,0 3.224,1.295 3.224,3.086 l 0,0.796 c 0,1.78 -1.356,3.086 -3.224,3.086 l -14.598,0 0,7.991 18.917,0 c 1.867,0 3.223,1.294 3.223,3.074 l 0,0.808 c 0,1.781 -1.356,3.075 -3.223,3.075 l -23.247,0"
             inkscape:connector-curvature="0"
             style="fill:#333333" /></g><g
           id="g48"
           transform="translate(298.2,230.07)"
           style="fill:#333333"><path
             id="path50"
             d="m 0,0 0,10.504 c 0,1.232 1.009,2.24 2.24,2.24 l 5.8,0 c 1.207,0 2.24,-1.021 2.24,-2.24 L 10.28,0 c 0,-1.232 -1.008,-2.24 -2.24,-2.24 l -5.85,0 C 0.959,-2.24 0,-1.257 0,0 m 1.605,16.354 c -3.036,0 -5.512,-2.366 -5.512,-5.29 l 0,-11.512 c 0,-2.962 2.389,-5.376 5.326,-5.376 l 7.442,0 c 2.938,0 5.339,2.414 5.339,5.376 l 0,11.512 c 0,2.913 -2.476,5.29 -5.512,5.29 l -7.083,0 z"
             inkscape:connector-curvature="0"
             style="fill:#333333" /></g><g
           id="g52"
           transform="translate(321.84,230.29)"
           style="fill:#333333"><path
             id="path54"
             d="m 0,0 0,10.043 c 0,1.381 1.083,2.464 2.465,2.464 l 5.426,0 c 1.381,0 2.463,-1.083 2.463,-2.464 L 10.354,0 c 0,-1.357 -1.094,-2.465 -2.463,-2.465 l -5.426,0 C 1.107,-2.465 0,-1.357 0,0 m 7.442,16.266 c -2.153,0 -3.758,-0.772 -5.065,-1.395 -0.784,-0.373 -1.468,-0.696 -2.003,-0.696 -0.225,0 -0.436,0.098 -0.548,0.273 l -0.485,0.947 c -0.112,0.248 -0.611,0.734 -1.233,0.734 l -0.721,0 c -0.698,0 -1.27,-0.623 -1.27,-1.406 l 0,-29.185 c 0,-0.909 0.71,-1.63 1.631,-1.63 l 0.635,0 c 0.895,0 1.63,0.735 1.63,1.63 l 0,9.683 c 0,0.286 0.186,0.585 0.361,0.585 0.535,0 1.219,-0.299 2.016,-0.673 1.294,-0.584 2.912,-1.331 5.065,-1.331 l 0.672,0 c 3.796,0 6.16,2.165 6.16,5.649 l 0,11.139 c 0,3.435 -2.414,5.663 -6.16,5.663 l -0.685,0 0,0.013 z"
             inkscape:connector-curvature="0"
             style="fill:#333333" /></g><g
           id="g56"
           transform="translate(345.54,240.62)"
           style="fill:#333333"><path
             id="path58"
             d="m 0,0 c 0,1.22 0.959,2.19 2.19,2.19 l 5.987,0 c 1.232,0 2.19,-0.959 2.19,-2.19 l 0,-3.56 L 0,-3.56 0,0 m 1.605,5.8 c -3.036,0 -5.512,-2.365 -5.512,-5.289 l 0,-11.426 c 0,-2.961 2.402,-5.476 5.239,-5.476 l 7.679,0 c 0.946,0 1.631,0.648 1.631,1.544 l 0,0.497 c 0,0.896 -0.685,1.543 -1.631,1.543 l -6.297,0 c -1.768,0 -2.701,0.86 -2.701,2.515 l 0,3.335 11.375,0 c 1.817,0 2.912,1.12 2.912,3.012 l 0,4.43 c 0,2.912 -2.477,5.289 -5.513,5.289 l -7.169,0 L 1.605,5.8 Z"
             inkscape:connector-curvature="0"
             style="fill:#333333" /></g><g
           id="g60"
           transform="translate(375.68,246.56)"
           style="fill:#333333"><path
             id="path62"
             d="m 0,0 c -2.141,0 -3.759,-0.76 -5.053,-1.382 -0.809,-0.373 -1.506,-0.709 -2.066,-0.709 -0.249,0 -0.349,0.025 -0.535,0.361 l -0.449,0.822 c -0.248,0.51 -0.683,0.771 -1.281,0.771 l -0.635,0 c -0.758,0 -1.306,-0.586 -1.306,-1.406 l 0,-19.141 c 0,-0.909 0.721,-1.643 1.63,-1.643 l 0.634,0 c 0.897,0 1.63,0.734 1.63,1.643 l 0,14.486 c 0,1.356 1.109,2.464 2.465,2.464 l 5.426,0 c 1.356,0 2.464,-1.108 2.464,-2.464 l 0,-14.486 c 0,-0.909 0.722,-1.643 1.631,-1.643 l 0.634,0 c 0.896,0 1.63,0.734 1.63,1.643 l 0,15.021 C 6.819,-2.229 4.405,0 0.659,0 l -0.684,0"
             inkscape:connector-curvature="0"
             style="fill:#333333" /></g></g></g></g></svg>