<!-- Made by Alexander Bl -->
<svg xmlns="http://www.w3.org/2000/svg" xmlns:xlink="http://www.w3.org/1999/xlink" version="1.1" x="0px" y="0px" viewBox="0 0 250 250" xml:space="preserve">
	<g>
		<circle fill="#9D0206" cx="125" cy="125" r="125"/>
		<path fill="#000000" stroke="#FFFFFF" stroke-width="2" stroke-miterlimit="10" d="M195,134.6c-0.1,5.1-4.2,9.1-8.9,9.1h-15.1v4.7c0,6.4-1.3,12.5-3.7,17.9l16.5,17.6c3.4,3.7,3.4,9.6,0,13.3c-3.4,3.7-9,3.7-12.4,0l-15-16c-6.8,5.9-15.4,9.4-24.8,9.4v-71.5c0-1.9-1.5-3.5-3.3-3.5h-6.6c-1.8,0-3.3,1.6-3.3,3.5v71.5c-9.4,0-18-3.5-24.8-9.4l-15,16c-3.4,3.7-9,3.7-12.4,0c-3.4-3.7-3.4-9.6,0-13.3l16.5-17.6c-2.4-5.4-3.7-11.5-3.7-17.9v-4.7H63.9c-4.8,0-8.8-4-8.9-9.1c-0.1-5.3,3.8-9.6,8.7-9.6h15.3v-17.2L66.3,94.1c-3.4-3.7-3.4-9.6,0-13.3c3.4-3.7,9-3.7,12.4,0l14.9,16h62.8l14.9-16c3.4-3.7,9-3.7,12.4,0c3.4,3.7,3.4,9.6,0,13.3l-12.7,13.7V125h15.3C191.2,125,195.1,129.3,195,134.6z M125.3,50c-16.9,0-30.6,14.7-30.6,32.8h61.3C155.9,64.7,142.2,50,125.3,50z"/>
	</g>
</svg>